<svg class="animated" id="freepik_stories-race-car" xmlns="http://www.w3.org/2000/svg" viewBox="0 0 500 500" version="1.1" xmlns:xlink="http://www.w3.org/1999/xlink" xmlns:svgjs="http://svgjs.com/svgjs"><style>svg#freepik_stories-race-car:not(.animated) .animable {opacity: 0;}svg#freepik_stories-race-car.animated #freepik--background-simple--inject-4 {animation: 0.7s 1 forwards cubic-bezier(.36,-0.01,.5,1.38) lightSpeedRight;animation-delay: 0s;}svg#freepik_stories-race-car.animated #freepik--Crowd--inject-4 {animation: 1s 1 forwards cubic-bezier(.36,-0.01,.5,1.38) lightSpeedRight,3s Infinite  linear shake;animation-delay: 0s,1s;}svg#freepik_stories-race-car.animated #freepik--Floor--inject-4 {animation: 1s 1 forwards cubic-bezier(.36,-0.01,.5,1.38) zoomOut;animation-delay: 0s;}svg#freepik_stories-race-car.animated #freepik--Shadow--inject-4 {animation: 1s 1 forwards cubic-bezier(.36,-0.01,.5,1.38) fadeIn,1.5s Infinite  linear shake;animation-delay: 0s,1s;}svg#freepik_stories-race-car.animated #freepik--Car--inject-4 {animation: 1s 1 forwards cubic-bezier(.36,-0.01,.5,1.38) lightSpeedRight,1.5s Infinite  linear shake;animation-delay: 0s,1s;}svg#freepik_stories-race-car.animated #freepik--Flag--inject-4 {animation: 1s 1 forwards cubic-bezier(.36,-0.01,.5,1.38) slideDown,3s Infinite  linear wind;animation-delay: 0s,1s;}            @keyframes lightSpeedRight {              from {                transform: translate3d(50%, 0, 0) skewX(-20deg);                opacity: 0;              }              60% {                transform: skewX(10deg);                opacity: 1;              }              80% {                transform: skewX(-2deg);              }              to {                opacity: 1;                transform: translate3d(0, 0, 0);              }            }                    @keyframes shake {                10%, 90% {                    transform: translate3d(-1px, 0, 0);                  }                  20%, 80% {                    transform: translate3d(2px, 0, 0);                  }                  30%, 50%, 70% {                    transform: translate3d(-4px, 0, 0);                  }                  40%, 60% {                    transform: translate3d(4px, 0, 0);                  }            }                    @keyframes zoomOut {                0% {                    opacity: 0;                    transform: scale(1.5);                }                100% {                    opacity: 1;                    transform: scale(1);                }            }                    @keyframes fadeIn {                0% {                    opacity: 0;                }                100% {                    opacity: 1;                }            }                    @keyframes slideDown {                0% {                    opacity: 0;                    transform: translateY(-30px);                }                100% {                    opacity: 1;                    transform: translateY(0);                }            }                    @keyframes wind {                0% {                    transform: rotate( 0deg );                }                25% {                    transform: rotate( 1deg );                }                75% {                    transform: rotate( -1deg );                }            }        </style><g id="freepik--background-simple--inject-4" class="animable" style="transform-origin: 260.069px 261.897px;"><path d="M53.25,213.46s-43.13,65-12.47,163.15,119.8,123.14,172.69,95.86,60.61-62.7,103.32-88.43,130.89-24.82,164.83-95.61-36.44-170-116.18-227.15S112.61,71.74,53.25,213.46Z" style="fill: #F88F39; transform-origin: 260.069px 261.897px;" id="elu4o0o1dw8f" class="animable"></path><g id="eluyfzp6dpk7r" class=""><path d="M53.25,213.46s-43.13,65-12.47,163.15,119.8,123.14,172.69,95.86,60.61-62.7,103.32-88.43,130.89-24.82,164.83-95.61-36.44-170-116.18-227.15S112.61,71.74,53.25,213.46Z" style="fill: rgb(255, 255, 255); opacity: 0.7; transform-origin: 260.069px 261.897px;" class="animable" id="el826et51szpl"></path></g></g><g id="freepik--Crowd--inject-4" class="animable" style="transform-origin: 244.94px 223.37px;"><path d="M5.51,309l-.18-1c2.32-.43,235.22-42.84,479.11-69.52l.11,1C240.69,266.17,7.83,308.58,5.51,309Z" style="fill: rgb(38, 50, 56); transform-origin: 244.94px 273.74px;" id="el3se6zfpbfe3" class="animable"></path><path d="M92.41,273.92a9.74,9.74,0,1,1,9.74-9.74A9.74,9.74,0,0,1,92.41,273.92Zm0-18.47a8.74,8.74,0,1,0,8.74,8.73A8.74,8.74,0,0,0,92.41,255.45Z" style="fill: rgb(38, 50, 56); transform-origin: 92.41px 264.18px;" id="eleukqjibm0c7" class="animable"></path><path d="M126.83,266.36a6.38,6.38,0,1,1,6.38-6.38A6.38,6.38,0,0,1,126.83,266.36Zm0-11.75a5.38,5.38,0,1,0,5.38,5.37A5.38,5.38,0,0,0,126.83,254.61Z" style="fill: rgb(38, 50, 56); transform-origin: 126.83px 259.98px;" id="elhml80b52537" class="animable"></path><path d="M103.33,244.53a7.22,7.22,0,1,1,7.21-7.21A7.23,7.23,0,0,1,103.33,244.53Zm0-13.43a6.22,6.22,0,1,0,6.21,6.22A6.23,6.23,0,0,0,103.33,231.1Z" style="fill: rgb(38, 50, 56); transform-origin: 103.32px 237.31px;" id="elwe6q1d10nji" class="animable"></path><path d="M70.58,227.74a5.54,5.54,0,1,1,5.54-5.54A5.55,5.55,0,0,1,70.58,227.74Zm0-10.07a4.54,4.54,0,1,0,4.54,4.53A4.54,4.54,0,0,0,70.58,217.67Z" style="fill: rgb(38, 50, 56); transform-origin: 70.58px 222.2px;" id="elcbt2vwogjpw" class="animable"></path><path d="M94.51,214.31a6,6,0,1,1,6-6A6,6,0,0,1,94.51,214.31Zm0-10.92a5,5,0,1,0,5,5A5,5,0,0,0,94.51,203.39Z" style="fill: rgb(38, 50, 56); transform-origin: 94.51px 208.31px;" id="eljoe149zexzf" class="animable"></path><path d="M169.23,262.16a5.12,5.12,0,1,1,5.12-5.12A5.12,5.12,0,0,1,169.23,262.16Zm0-9.23a4.12,4.12,0,1,0,4.12,4.11A4.12,4.12,0,0,0,169.23,252.93Z" style="fill: rgb(38, 50, 56); transform-origin: 169.23px 257.04px;" id="elql7igdvizh" class="animable"></path><path d="M266.62,228.58a8.48,8.48,0,1,1,8.48-8.48A8.48,8.48,0,0,1,266.62,228.58Zm0-16a7.48,7.48,0,1,0,7.48,7.47A7.48,7.48,0,0,0,266.62,212.63Z" style="fill: rgb(38, 50, 56); transform-origin: 266.62px 220.1px;" id="el1lq98dnvqlf" class="animable"></path><path d="M308.37,199.5a8.71,8.71,0,1,1,8.71-8.7A8.71,8.71,0,0,1,308.37,199.5Zm0-16.41a7.71,7.71,0,1,0,7.71,7.71A7.72,7.72,0,0,0,308.37,183.09Z" style="fill: rgb(38, 50, 56); transform-origin: 308.37px 190.79px;" id="elfz5hvfo5gjk" class="animable"></path><path d="M280.47,200.87a3.86,3.86,0,1,1,3.86-3.85A3.86,3.86,0,0,1,280.47,200.87Zm0-6.71a2.86,2.86,0,1,0,2.86,2.86A2.86,2.86,0,0,0,280.47,194.16Z" style="fill: rgb(38, 50, 56); transform-origin: 280.47px 197.01px;" id="eldum398vsggb" class="animable"></path><path d="M357.72,198.36a3.86,3.86,0,1,1,3.85-3.86A3.87,3.87,0,0,1,357.72,198.36Zm0-6.72a2.86,2.86,0,1,0,2.85,2.86A2.86,2.86,0,0,0,357.72,191.64Z" style="fill: rgb(38, 50, 56); transform-origin: 357.71px 194.5px;" id="el8xvoc32pfv5" class="animable"></path><path d="M319.09,209.27a4.7,4.7,0,1,1,4.7-4.7A4.71,4.71,0,0,1,319.09,209.27Zm0-8.4a3.7,3.7,0,1,0,3.7,3.7A3.7,3.7,0,0,0,319.09,200.87Z" style="fill: rgb(38, 50, 56); transform-origin: 319.09px 204.57px;" id="elptecwtsvp5k" class="animable"></path><path d="M412.29,218.51a6.38,6.38,0,1,1,6.37-6.38A6.39,6.39,0,0,1,412.29,218.51Zm0-11.76a5.38,5.38,0,1,0,5.37,5.38A5.38,5.38,0,0,0,412.29,206.75Z" style="fill: rgb(38, 50, 56); transform-origin: 412.28px 212.13px;" id="el67z3x3eal6i" class="animable"></path><path d="M391.72,169a3.44,3.44,0,1,1,3.44-3.44A3.44,3.44,0,0,1,391.72,169Zm0-5.88a2.44,2.44,0,1,0,2.44,2.44A2.44,2.44,0,0,0,391.72,163.09Z" style="fill: rgb(38, 50, 56); transform-origin: 391.72px 165.56px;" id="els8tol42o5uj" class="animable"></path><path d="M439.15,200.87a5.54,5.54,0,1,1,5.54-5.53A5.54,5.54,0,0,1,439.15,200.87Zm0-10.07a4.54,4.54,0,1,0,4.54,4.54A4.53,4.53,0,0,0,439.15,190.8Z" style="fill: rgb(38, 50, 56); transform-origin: 439.15px 195.33px;" id="elq0imt0zpb4a" class="animable"></path><path d="M428.66,230.26a6,6,0,1,1,6-6A6,6,0,0,1,428.66,230.26Zm0-10.92a5,5,0,1,0,5,5A5,5,0,0,0,428.66,219.34Z" style="fill: rgb(38, 50, 56); transform-origin: 428.66px 224.26px;" id="eluxxce46pand" class="animable"></path><path d="M385,192.48a4.28,4.28,0,1,1,4.28-4.28A4.28,4.28,0,0,1,385,192.48Zm0-7.56a3.28,3.28,0,1,0,3.28,3.28A3.28,3.28,0,0,0,385,184.92Z" style="fill: rgb(38, 50, 56); transform-origin: 385px 188.2px;" id="elnz71x3ep0c" class="animable"></path><path d="M388.36,156.38a9.32,9.32,0,1,1,9.31-9.32A9.33,9.33,0,0,1,388.36,156.38Zm0-17.63a8.32,8.32,0,1,0,8.31,8.31A8.32,8.32,0,0,0,388.36,138.75Z" style="fill: rgb(38, 50, 56); transform-origin: 388.35px 147.06px;" id="elfvtluqxy6kh" class="animable"></path><path d="M464.34,230.26a4.7,4.7,0,1,1,4.7-4.7A4.71,4.71,0,0,1,464.34,230.26Zm0-8.4a3.7,3.7,0,1,0,3.7,3.7A3.7,3.7,0,0,0,464.34,221.86Z" style="fill: rgb(38, 50, 56); transform-origin: 464.34px 225.56px;" id="el2w5blic4ytq" class="animable"></path><path d="M403.89,245.37a8.06,8.06,0,1,1,8.06-8.05A8.06,8.06,0,0,1,403.89,245.37Zm0-15.11a7.06,7.06,0,1,0,7.06,7.06A7.06,7.06,0,0,0,403.89,230.26Z" style="fill: rgb(38, 50, 56); transform-origin: 403.89px 237.31px;" id="elzjyr2wyc0zg" class="animable"></path><path d="M434.12,179.88a4.7,4.7,0,1,1,4.69-4.69A4.7,4.7,0,0,1,434.12,179.88Zm0-8.39a3.7,3.7,0,1,0,3.69,3.7A3.7,3.7,0,0,0,434.12,171.49Z" style="fill: rgb(38, 50, 56); transform-origin: 434.11px 175.18px;" id="ely72q4b6p5e9" class="animable"></path><path d="M218.77,242a5.12,5.12,0,1,1,5.11-5.11A5.11,5.11,0,0,1,218.77,242Zm0-9.23a4.12,4.12,0,1,0,4.11,4.12A4.12,4.12,0,0,0,218.77,232.78Z" style="fill: rgb(38, 50, 56); transform-origin: 218.76px 236.88px;" id="el7bulq29w3fx" class="animable"></path><path d="M229.26,270.56a7.22,7.22,0,1,1,7.22-7.22A7.23,7.23,0,0,1,229.26,270.56Zm0-13.43a6.22,6.22,0,1,0,6.22,6.21A6.22,6.22,0,0,0,229.26,257.13Z" style="fill: rgb(38, 50, 56); transform-origin: 229.26px 263.34px;" id="el4egylzr1ck" class="animable"></path><path d="M193.58,248.73a4.28,4.28,0,1,1,4.28-4.28A4.28,4.28,0,0,1,193.58,248.73Zm0-7.56a3.28,3.28,0,1,0,3.28,3.28A3.28,3.28,0,0,0,193.58,241.17Z" style="fill: rgb(38, 50, 56); transform-origin: 193.58px 244.45px;" id="elk12zygazoj" class="animable"></path><path d="M145.3,280.63a5.54,5.54,0,1,1,5.54-5.53A5.54,5.54,0,0,1,145.3,280.63Zm0-10.07a4.54,4.54,0,1,0,4.54,4.54A4.53,4.53,0,0,0,145.3,270.56Z" style="fill: rgb(38, 50, 56); transform-origin: 145.3px 275.09px;" id="elnl70c1r13zr" class="animable"></path><path d="M52.53,289a6.8,6.8,0,1,1,6.8-6.8A6.81,6.81,0,0,1,52.53,289Zm0-12.59a5.8,5.8,0,1,0,5.8,5.79A5.81,5.81,0,0,0,52.53,276.44Z" style="fill: rgb(38, 50, 56); transform-origin: 52.53px 282.2px;" id="elb3vs786p5" class="animable"></path><path d="M60.93,253.77a3.44,3.44,0,1,1,3.44-3.44A3.45,3.45,0,0,1,60.93,253.77Zm0-5.88a2.44,2.44,0,1,0,2.44,2.44A2.44,2.44,0,0,0,60.93,247.89Z" style="fill: rgb(38, 50, 56); transform-origin: 60.93px 250.33px;" id="elqbqztf7yay" class="animable"></path><path d="M98.71,178.21a3.44,3.44,0,1,1,3.44-3.44A3.45,3.45,0,0,1,98.71,178.21Zm0-5.88a2.44,2.44,0,1,0,2.44,2.44A2.44,2.44,0,0,0,98.71,172.33Z" style="fill: rgb(38, 50, 56); transform-origin: 98.71px 174.77px;" id="elvpn7e1nom5g" class="animable"></path><path d="M37.84,271.4a4.7,4.7,0,1,1,4.7-4.7A4.71,4.71,0,0,1,37.84,271.4Zm0-8.4a3.7,3.7,0,1,0,3.7,3.7A3.7,3.7,0,0,0,37.84,263Z" style="fill: rgb(38, 50, 56); transform-origin: 37.84px 266.7px;" id="eldtblsljxt1m" class="animable"></path></g><g id="freepik--Floor--inject-4" class="animable" style="transform-origin: 253.875px 380.93px;"><path d="M30.7,414.79l-.19-1c2.17-.41,219.27-41.12,446.62-66.72l.11,1C249.93,373.68,32.86,414.38,30.7,414.79Z" style="fill: rgb(38, 50, 56); transform-origin: 253.875px 380.93px;" id="elrohquvqlbs" class="animable"></path></g><g id="freepik--Shadow--inject-4" class="animable" style="transform-origin: 259.12px 390.82px;"><g id="elopf0hrfxhj"><ellipse cx="259.12" cy="390.82" rx="188.85" ry="7.86" style="fill: rgb(38, 50, 56); transform-origin: 259.12px 390.82px; transform: rotate(-8.86deg);" class="animable" id="elszfqpwjcg7"></ellipse></g></g><g id="freepik--Car--inject-4" class="animable" style="transform-origin: 248.424px 313.555px;"><path d="M262.24,366.28a59.84,59.84,0,0,0-4.31-35l-2.51-20.44-20,3c-12.54,1.55-20.64,19.56-18.1,40.24s14.78,36.18,27.32,34.63l20-3Z" style="fill: rgb(255, 255, 255); transform-origin: 240.747px 349.828px;" id="elkid430mair" class="animable"></path><path d="M242.93,389.3c-12.17,0-23.65-15.24-26.11-35.18-2.58-20.92,5.73-39.22,18.53-40.79l20.5-3.05,2.57,20.87a60.38,60.38,0,0,1,4.33,35.15l2.44,19.84-20.49,3.05A15,15,0,0,1,242.93,389.3Zm12-77.88-19.5,2.9c-12.26,1.51-20.18,19.31-17.67,39.67s14.53,35.71,26.76,34.21l19.51-2.9-2.34-19v-.08a59.27,59.27,0,0,0-4.27-34.69l0-.15Z" style="fill: rgb(38, 50, 56); transform-origin: 240.77px 349.79px;" id="elj35ms4iv8ho" class="animable"></path><g id="el6j7pv2xt4xs"><ellipse cx="260.03" cy="348.29" rx="22.88" ry="37.72" style="fill: rgb(38, 50, 56); transform-origin: 260.03px 348.29px; transform: rotate(-7.02deg);" class="animable" id="elp2mks82q04g"></ellipse></g><path d="M262.93,386.33c-12.16,0-23.65-15.24-26.1-35.19-2.58-20.91,5.73-39.21,18.53-40.78s25.29,14.15,27.87,35.07c1.24,10.09,0,19.87-3.43,27.55s-8.86,12.47-15.1,13.24A15,15,0,0,1,262.93,386.33Zm-5.78-75.08a13.25,13.25,0,0,0-1.67.1c-12.25,1.51-20.17,19.3-17.66,39.67s14.53,35.71,26.76,34.2c5.88-.72,11-5.21,14.31-12.65s4.57-17.11,3.34-27C279.84,326.11,268.79,311.25,257.15,311.25Z" style="fill: rgb(38, 50, 56); transform-origin: 260.03px 348.291px;" id="el1ms0g01dx9x" class="animable"></path><g id="ellri17qj1r1"><ellipse cx="260.03" cy="348.29" rx="14.91" ry="24.59" style="fill: rgb(255, 255, 255); transform-origin: 260.03px 348.29px; transform: rotate(-7.02deg);" class="animable" id="el1n38v8b7uof"></ellipse></g><path d="M261.92,373.26c-8,0-15.58-10-17.19-23.09A34.55,34.55,0,0,1,247,332.12c2.3-5.12,5.85-8.22,10-8.73s8.32,1.64,11.8,6a34.45,34.45,0,0,1,6.56,17h0c1.69,13.73-3.79,25.75-12.23,26.78A9.2,9.2,0,0,1,261.92,373.26Zm-3.77-48.95a9.77,9.77,0,0,0-1.07.07c-3.77.46-7,3.36-9.19,8.15a33.5,33.5,0,0,0-2.17,17.52c1.63,13.18,9.36,23.11,17.25,22.14s13-12.48,11.36-25.66A33.49,33.49,0,0,0,268,330.05C265,326.32,261.58,324.31,258.15,324.31Z" style="fill: rgb(38, 50, 56); transform-origin: 260.026px 348.288px;" id="el9fx61c2he8m" class="animable"></path><path d="M262.38,347.1c.55,4.47-1.2,8.37-3.92,8.71s-5.36-3-5.91-7.5,1.2-8.38,3.92-8.71S261.83,342.62,262.38,347.1Z" style="fill: rgb(255, 255, 255); transform-origin: 257.465px 347.706px;" id="elk63a7rmdme" class="animable"></path><path d="M258.08,356.33c-2.86,0-5.46-3.37-6-8a11.72,11.72,0,0,1,.77-6.17,4.24,4.24,0,0,1,7.8-1,11.78,11.78,0,0,1,2.25,5.8c.59,4.82-1.32,8.89-4.35,9.26Zm-1.24-16.25a1.62,1.62,0,0,0-.31,0,3.81,3.81,0,0,0-2.79,2.51,10.75,10.75,0,0,0-.69,5.64c.51,4.19,2.91,7.35,5.35,7.06s4-4,3.48-8.15h0a10.76,10.76,0,0,0-2-5.31A4,4,0,0,0,256.84,340.08Z" style="fill: rgb(38, 50, 56); transform-origin: 257.482px 347.662px;" id="elv9cxl0e474l" class="animable"></path><path d="M450,311.93l-10.94,2.43s-9.73-18.06-24.9-15.56-21.81,17.42-21.81,17.42,6.05-32.75,17.37-42.55,18.64-2.57,23-.27S448.61,301.28,450,311.93Z" style="fill: rgb(38, 50, 56); transform-origin: 421.175px 292.445px;" id="elu4f517ur8hp" class="animable"></path><path d="M391.13,320.26l.76-4.13c.25-1.35,6.21-33,17.53-42.84,10-8.7,17-4.36,21.65-1.49.7.43,1.36.85,1.95,1.15,4.58,2.4,16,27.85,17.5,38.91l.06.46-11.75,2.61-.18-.33c-.09-.18-9.74-17.71-24.38-15.31s-21.36,17-21.43,17.13Zm25.9-22.2c12.58,0,21,13.44,22.32,15.73l10.12-2.25c-1.63-10.57-12.79-35.54-16.91-37.7-.62-.32-1.3-.75-2-1.19-4.38-2.72-11-6.82-20.47,1.4-9,7.78-14.68,30.61-16.53,39.06,2.83-4.53,9.48-13,20.57-14.81A18.44,18.44,0,0,1,417,298.06Z" style="fill: rgb(38, 50, 56); transform-origin: 420.855px 294.202px;" id="eltc3cbq4oda" class="animable"></path><path d="M424.75,344.66a60.06,60.06,0,0,0-4.31-35l-2.52-20.44-20,3c-12.54,1.55-20.64,19.56-18.09,40.23s14.77,36.19,27.31,34.64l20-3Z" style="fill: rgb(38, 50, 56); transform-origin: 403.25px 328.208px;" id="elkodjdlibpfi" class="animable"></path><path d="M405.43,367.68c-12.17,0-23.65-15.24-26.11-35.18-2.57-20.92,5.74-39.22,18.53-40.79l20.5-3,2.57,20.87a60.38,60.38,0,0,1,4.33,35.15l2.45,19.84-20.5,3.05A15,15,0,0,1,405.43,367.68Zm12.06-77.88L398,292.7c-12.25,1.51-20.18,19.31-17.67,39.67s14.52,35.71,26.76,34.21l19.52-2.9-2.35-19,0-.08A59.38,59.38,0,0,0,420,309.88l0-.15Z" style="fill: rgb(38, 50, 56); transform-origin: 403.277px 328.197px;" id="elb80o6b1t19m" class="animable"></path><g id="eldfhsu8unv28"><ellipse cx="422.53" cy="326.67" rx="22.88" ry="37.72" style="fill: rgb(38, 50, 56); transform-origin: 422.53px 326.67px; transform: rotate(-7.02deg);" class="animable" id="elzxmzeicpt6"></ellipse></g><path d="M425.4,364.71c-5.65,0-11.29-3.25-16.06-9.29-5.21-6.61-8.77-15.81-10-25.9s0-19.87,3.43-27.55,8.85-12.47,15.1-13.23,12.59,2.48,17.86,9.17,8.77,15.81,10,25.9h0c1.24,10.09,0,19.87-3.43,27.55s-8.85,12.47-15.1,13.24A15.53,15.53,0,0,1,425.4,364.71Zm-5.74-75.09a13.54,13.54,0,0,0-1.68.11c-5.88.72-11,5.21-14.31,12.65s-4.57,17.11-3.35,27,4.71,18.93,9.81,25.4,11.07,9.52,16.95,8.8,11-5.21,14.31-12.65,4.57-17.11,3.35-27h0c-1.22-9.91-4.71-18.93-9.81-25.4C430.36,292.73,425,289.62,419.66,289.62Z" style="fill: rgb(38, 50, 56); transform-origin: 422.537px 326.671px;" id="eltv96hfamfk" class="animable"></path><path d="M437.33,324.84c1.66,13.48-3.62,25.22-11.79,26.23s-16.15-9.1-17.81-22.58,3.62-25.22,11.79-26.23S435.67,311.37,437.33,324.84Z" style="fill: rgb(255, 255, 255); transform-origin: 422.53px 326.665px;" id="elb6ki78a8rhq" class="animable"></path><path d="M424.42,351.64c-8,0-15.57-10-17.19-23.09a34.6,34.6,0,0,1,2.25-18.06c2.31-5.11,5.85-8.21,10-8.72s8.33,1.64,11.8,6a37.27,37.27,0,0,1,4.32,35c-2.31,5.12-5.85,8.21-10,8.72A9.48,9.48,0,0,1,424.42,351.64Zm-3.76-48.95a9.45,9.45,0,0,0-1.07.07c-3.78.46-7,3.36-9.19,8.14a33.45,33.45,0,0,0-2.17,17.53c1.62,13.18,9.38,23.11,17.24,22.14,3.78-.46,7-3.36,9.19-8.14a33.44,33.44,0,0,0,2.17-17.53h0a33.54,33.54,0,0,0-6.35-16.47C427.53,304.7,424.08,302.69,420.66,302.69Z" style="fill: rgb(38, 50, 56); transform-origin: 422.502px 326.668px;" id="eloay66ivvwv" class="animable"></path><path d="M424.88,325.48c.55,4.47-1.2,8.37-3.91,8.71s-5.37-3-5.92-7.5,1.21-8.38,3.92-8.71S424.33,321,424.88,325.48Z" style="fill: rgb(255, 255, 255); transform-origin: 419.965px 326.086px;" id="elbi59b3z0tz6" class="animable"></path><path d="M420.58,334.71c-2.86,0-5.46-3.38-6-8a11.7,11.7,0,0,1,.77-6.17,4.76,4.76,0,0,1,3.58-3.1c3-.37,5.88,3.12,6.47,7.94h0c.59,4.82-1.32,8.89-4.35,9.26Zm-1.23-16.25H419a3.82,3.82,0,0,0-2.79,2.52,10.75,10.75,0,0,0-.69,5.64c.52,4.19,2.95,7.35,5.36,7.06s4-4,3.48-8.15h0C423.89,321.53,421.67,318.46,419.35,318.46Z" style="fill: rgb(38, 50, 56); transform-origin: 419.982px 326.062px;" id="elru2vev6x6m" class="animable"></path><path d="M91.14,393.12a59.84,59.84,0,0,0-4.31-35l-2.52-20.44-20,3c-12.53,1.55-20.63,19.56-18.09,40.23S61,417.08,73.53,415.53l20-3Z" style="fill: rgb(84, 84, 84); transform-origin: 69.642px 376.658px;" id="el4dqmhbgx7c4" class="animable"></path><path d="M71.82,416.13c-12.16,0-23.65-15.23-26.1-35.18-1.25-10.08,0-19.87,3.43-27.55S58,340.93,64.24,340.17l20.51-3.05L87.32,358a59.36,59.36,0,0,1,4.8,17.25,59,59,0,0,1-.47,17.9L94.09,413,73.6,416A15.17,15.17,0,0,1,71.82,416.13Zm12.06-77.87-19.5,2.9c-5.9.72-11,5.22-14.32,12.65s-4.57,17.11-3.35,27C49.22,401.2,61.23,416.54,73.46,415L93,412.14l-2.34-19V393a59.48,59.48,0,0,0-4.27-34.69l0-.15Z" style="fill: rgb(38, 50, 56); transform-origin: 69.6681px 376.625px;" id="elbpy42vxx296" class="animable"></path><g id="elyjzx4r4kjos"><ellipse cx="88.92" cy="375.12" rx="22.88" ry="37.72" style="fill: rgb(38, 50, 56); transform-origin: 88.92px 375.12px; transform: rotate(-7.02deg);" class="animable" id="el1rv8jutlcap"></ellipse></g><path d="M91.82,413.16c-12.15,0-23.64-15.23-26.1-35.18-2.57-20.91,5.74-39.21,18.53-40.79s25.3,14.16,27.87,35.08-5.73,39.21-18.52,40.78A13.29,13.29,0,0,1,91.82,413.16ZM86,338.08a13.22,13.22,0,0,0-1.66.11c-12.25,1.5-20.17,19.3-17.66,39.67s14.52,35.71,26.75,34.2,20.17-19.3,17.66-39.67C108.74,353,97.69,338.08,86,338.08Z" style="fill: rgb(38, 50, 56); transform-origin: 88.9202px 375.12px;" id="el60zbvl50u6u" class="animable"></path><g id="elhjirfusztrr"><ellipse cx="88.92" cy="375.12" rx="14.91" ry="24.59" style="fill: rgb(38, 50, 56); transform-origin: 88.92px 375.12px; transform: rotate(-7.02deg);" class="animable" id="el32l6fhr4z66"></ellipse></g><path d="M90.79,400.1c-3.73,0-7.46-2.14-10.6-6.12a37.3,37.3,0,0,1-4.31-35c2.3-5.12,5.84-8.22,10-8.72,8.44-1.06,16.67,9.28,18.36,23h0C105.91,387,100.43,399,92,400A9.67,9.67,0,0,1,90.79,400.1Zm-3.74-49a7.69,7.69,0,0,0-1.07.07c-3.77.46-7,3.36-9.19,8.14a36.28,36.28,0,0,0,4.19,34c3.25,4.12,7.12,6.14,10.89,5.67,7.89-1,13-12.49,11.36-25.67C101.68,360.78,94.55,351.15,87.05,351.15Z" style="fill: rgb(38, 50, 56); transform-origin: 88.9488px 375.143px;" id="elqb3rlfftqo" class="animable"></path><path d="M91.28,373.94c.55,4.47-1.2,8.37-3.92,8.71s-5.36-3-5.91-7.5,1.2-8.38,3.92-8.71S90.73,369.46,91.28,373.94Z" style="fill: rgb(38, 50, 56); transform-origin: 86.365px 374.546px;" id="elul2moz8ggg" class="animable"></path><path d="M87,383.17A5,5,0,0,1,83.2,381a12.69,12.69,0,0,1-1.47-12,4.25,4.25,0,0,1,7.8-1,12.76,12.76,0,0,1,1.47,12,4.71,4.71,0,0,1-3.58,3.09A3.15,3.15,0,0,1,87,383.17Zm-1.24-16.26-.31,0a3.78,3.78,0,0,0-2.79,2.51A11.68,11.68,0,0,0,84,380.39a3.27,3.27,0,0,0,6.1-.75,11.75,11.75,0,0,0-1.35-10.95A4,4,0,0,0,85.74,366.91Z" style="fill: rgb(38, 50, 56); transform-origin: 86.3605px 374.51px;" id="el7l6x78z1jni" class="animable"></path><path d="M71.18,333.68s5.75-1.14,8,.77a7.9,7.9,0,0,1,2.64,4.47l15.62-1.35,4.68-13.52s-7.48-1.63-13.58.68S71.18,333.68,71.18,333.68Z" style="fill: rgb(38, 50, 56); transform-origin: 86.65px 331.206px;" id="elcobt64u68d6" class="animable"></path><path d="M81.4,339.45l-.07-.46a7.42,7.42,0,0,0-2.46-4.16c-2.05-1.74-7.53-.67-7.59-.66l-2.88.57,2.53-1.49c.11-.07,11.38-6.69,17.44-9s13.55-.77,13.87-.7l.55.12-5,14.36Zm-6.62-6.61a7.65,7.65,0,0,1,4.74,1.22,8.57,8.57,0,0,1,2.71,4.32l14.86-1.28,4.38-12.67c-1.83-.31-7.8-1.1-12.74.77-4.4,1.66-11.6,5.65-15.16,7.68C74,332.86,74.36,332.84,74.78,332.84Z" style="fill: rgb(38, 50, 56); transform-origin: 85.595px 331.216px;" id="elkrmitmfh7bl" class="animable"></path><path d="M99.43,322.66s-33.35,1.17-42.49,6.09-9.57,11.17-9.57,11.17l27.44-3.74s11.27-10.3,22.38-10.92Z" style="fill: rgb(84, 84, 84); transform-origin: 73.4px 331.29px;" id="elqy3zxiugx6" class="animable"></path><path d="M46.83,340.5l0-.61c0-.27.54-6.58,9.83-11.58,9.14-4.92,41.35-6.1,42.71-6.15l1.15,0-3.13,3.63h-.21c-10.81.6-22,10.68-22.07,10.78l-.12.11-.15,0ZM98.3,323.21c-5.94.26-33.14,1.68-41.13,6-7.1,3.83-8.8,8.48-9.19,10.14l26.61-3.63c1.28-1.15,11.74-10.23,22.36-10.93Z" style="fill: rgb(38, 50, 56); transform-origin: 73.675px 331.33px;" id="el086ge3fc3lki" class="animable"></path><path d="M196,292s-65.79,14-78.32,19.61-24.15,15.6-28.88,23.46-.86,17.15,0,19.58,5.25,17,12.71,22.17,10.74,6.7,16,6.59,33-1.92,41.51-4.55S368.52,346.2,368.52,346.2,394,334.74,399.17,331s4.74-5.95,5.29-14.45,1.73-29.09,10.17-39.74,20.91-1,27.38,14.4,8,20.77,8,20.77,2,2.84.48-3.08-2.3-14.39-8.87-26.53-16.08-17.71-22.05-18.3-15.33.68-15.33.68a13.09,13.09,0,0,0-6.35-1.49c-4.15-.09-18.43-1-43.24,3.8s-107.08,14.52-107.08,14.52Z" style="fill: #F88F39; transform-origin: 268.777px 323.275px;" id="elevv3nmf8q6t" class="animable"></path><path d="M117.05,383.93c-5.23,0-8.64-1.74-15.82-6.69-7-4.81-11.2-17.41-12.6-21.56l-.29-.85-.17-.46c-1.09-2.95-4.39-11.93.2-19.55,5.11-8.49,17.35-18.43,29.1-23.66,12.44-5.53,75.74-19.07,78.42-19.64h0L247.49,281c.86-.1,82.58-9.72,107.08-14.52,22.88-4.47,36.89-4,42.16-3.84l1.19,0a14.27,14.27,0,0,1,6.45,1.47c1.33-.17,9.68-1.22,15.27-.66,6.52.65,16,6.64,22.44,18.56A76.75,76.75,0,0,1,450,304.55c.32,1.49.62,2.91,1,4.17.86,3.27.7,4.06.14,4.33s-1.2-.4-1.51-.83l-.07-.15c0-.06-1.63-5.55-8-20.72-4.37-10.38-11.23-17.64-17.48-18.5-3.42-.47-6.46.95-9.05,4.22-8.21,10.36-9.49,30.47-10,39.06l0,.41c-.05.91-.1,1.75-.14,2.52-.37,6.57-.49,8.78-5.34,12.3-5.21,3.77-29.7,14.82-30.74,15.29l-.13,0c-2,.3-201,30.07-209.37,32.66-8.56,2.64-36.15,4.46-41.65,4.57ZM196.1,292.5c-.69.15-65.88,14.09-78.22,19.58-13.13,5.83-24.35,16.11-28.65,23.25s-1.17,15.85-.12,18.69l.17.47.3.87c1.37,4.07,5.53,16.44,12.22,21.06,7.21,5,10.51,6.62,15.75,6.5,5.48-.11,32.92-1.91,41.38-4.53s200.3-31.31,209.45-32.68c1.41-.64,25.5-11.54,30.5-15.16,4.47-3.24,4.58-5.16,4.93-11.55,0-.77.09-1.61.15-2.53l0-.4c.56-8.69,1.85-29,10.25-39.62,2.79-3.52,6.24-5.1,10-4.59,6.59.9,13.76,8.4,18.26,19.11,6,14.19,7.78,20,8,20.73l.11.13A15.45,15.45,0,0,0,450,309c-.34-1.29-.64-2.72-1-4.22a74.82,74.82,0,0,0-7.85-22.2c-6.28-11.6-15.41-17.42-21.66-18.05-5.84-.58-15.12.67-15.21.69l-.18,0-.16-.1a13,13,0,0,0-6.09-1.41l-1.2,0c-5.24-.17-19.17-.62-41.94,3.83-24.54,4.81-106.29,14.44-107.11,14.53Z" style="fill: rgb(38, 50, 56); transform-origin: 268.802px 323.237px;" id="ell2gdninz6l" class="animable"></path><path d="M154.18,312.3c1.59,5.12-7.5,12.5-20.3,16.46s-24.47,3-26.06-2.1,7.5-12.5,20.3-16.47S152.59,307.17,154.18,312.3Z" style="fill: rgb(255, 255, 255); transform-origin: 131px 319.47px;" id="elzb1gx6y18p" class="animable"></path><path d="M399.47,292.92a11.32,11.32,0,1,1-11.56-11.25A11.4,11.4,0,0,1,399.47,292.92Z" style="fill: rgb(255, 255, 255); transform-origin: 388.15px 292.988px;" id="elk5g26j43fni" class="animable"></path><path d="M163.43,375.81l-.54-.84a22.8,22.8,0,0,0,7.92-10.36l.94.34A23.27,23.27,0,0,1,163.43,375.81Z" style="fill: rgb(38, 50, 56); transform-origin: 167.32px 370.21px;" id="elikkggb021r" class="animable"></path><path d="M173,359.68l-1-.11a22.17,22.17,0,0,0,.14-3.06,50,50,0,0,0-3.37-16.32c-1.11-3.24-2-5.8-1.52-7.88,1.05-4.62,26.46-8.78,29.35-9.24l.16,1c-10.68,1.7-27.86,5.5-28.54,8.48-.41,1.8.43,4.24,1.5,7.33a51.71,51.71,0,0,1,3.42,16.63A24.1,24.1,0,0,1,173,359.68Z" style="fill: rgb(38, 50, 56); transform-origin: 181.938px 341.375px;" id="elklms6oc5cy8" class="animable"></path><polygon points="270.7 340.68 364.88 323.85 364.74 332.82 274.7 350.1 270.7 340.68" style="fill: rgb(38, 50, 56); transform-origin: 317.79px 336.975px;" id="elm88k1bnpylb" class="animable"></polygon><path d="M158.21,326.5l-.71-.71c6.75-6.73,19.19-15.87,40.08-21.18l.25,1C177.15,310.84,164.87,319.86,158.21,326.5Z" style="fill: rgb(38, 50, 56); transform-origin: 177.665px 315.555px;" id="el68dz0piw1f" class="animable"></path><path d="M152.43,333.49l-.86-.5a31.4,31.4,0,0,1,3.52-4.64l.75.66A31.82,31.82,0,0,0,152.43,333.49Z" style="fill: rgb(38, 50, 56); transform-origin: 153.705px 330.92px;" id="elrrnnpxop8no" class="animable"></path><path d="M202.71,327.68s-.36-3-1-7l1-.15c.61,4,1,7,1,7Z" style="fill: rgb(38, 50, 56); transform-origin: 202.71px 324.105px;" id="el7z0jautfoqe" class="animable"></path><path d="M200.75,314.7c-2.15-11.8-3.79-13.84-4.4-14.17-2.81-1.53-20-.07-26.37.62l-.1-1c1-.11,23.29-2.5,27-.51.6.33,2.44,1.32,4.9,14.87Z" style="fill: rgb(38, 50, 56); transform-origin: 185.83px 306.776px;" id="elg1velrx5kb" class="animable"></path><g id="elt4otlqdgb1"><ellipse cx="281.31" cy="307" rx="28.64" ry="27.4" style="fill: rgb(255, 255, 255); transform-origin: 281.31px 307px; transform: rotate(-1.14576deg);" class="animable" id="el05b1dj1p90j2"></ellipse></g><path d="M266.5,328.59l-.66-4.4,5.44-15.43c.4-1.13.77-2.21,1.12-3.24a18.1,18.1,0,0,0,.77-3.15,11.76,11.76,0,0,0,0-3.4,6.38,6.38,0,0,0-1.07-3,1.93,1.93,0,0,0-2-.69,2.48,2.48,0,0,0-1.75,1.19,4.92,4.92,0,0,0-.61,2.3,15.93,15.93,0,0,0,.19,2.93l.23,1.53-5.11,1-.24-1.61a18.61,18.61,0,0,1,0-5.86,8.54,8.54,0,0,1,2-4.37,7.72,7.72,0,0,1,4.41-2.34q3.9-.8,6.23,1.32c1.55,1.42,2.55,3.62,3,6.62a15.08,15.08,0,0,1,.08,4.17,20,20,0,0,1-.87,3.77c-.41,1.23-.87,2.5-1.37,3.8l-4.54,12.61,9.24-1.89.74,5Z" style="fill: rgb(38, 50, 56); transform-origin: 272.154px 309.21px;" id="elebmyhp9jqu" class="animable"></path><path d="M285.16,324.78l-.66-4.41,5.44-15.43c.4-1.13.77-2.21,1.12-3.24a19.18,19.18,0,0,0,.77-3.14,11.43,11.43,0,0,0,0-3.4,6.24,6.24,0,0,0-1.06-3,1.93,1.93,0,0,0-2-.7,2.48,2.48,0,0,0-1.75,1.19,4.85,4.85,0,0,0-.61,2.31,15.88,15.88,0,0,0,.19,2.92l.22,1.53-5.1,1.05-.24-1.62a18.55,18.55,0,0,1,0-5.85,8.57,8.57,0,0,1,2-4.37,7.79,7.79,0,0,1,4.41-2.34c2.61-.54,4.68-.1,6.24,1.32s2.55,3.61,3,6.61a15.15,15.15,0,0,1,.08,4.18,20.12,20.12,0,0,1-.87,3.76c-.41,1.23-.87,2.5-1.37,3.81l-4.54,12.6,9.24-1.89.74,5Z" style="fill: rgb(38, 50, 56); transform-origin: 290.829px 305.418px;" id="elhr9he8ted8d" class="animable"></path><polygon points="244.95 291.39 263.46 314.48 246.64 326.45 223.4 326.47 205.18 305.75 215.2 297.48 244.95 291.39" style="fill: rgb(38, 50, 56); transform-origin: 234.32px 308.93px;" id="el7nggvod3le8" class="animable"></polygon><path d="M223.18,327l-18.72-21.28L215,297l.12,0,30.05-6.14,19,23.74L246.8,327ZM205.9,305.81,223.63,326l22.85,0,16.26-11.58-18-22.43-29.33,6Z" style="fill: rgb(38, 50, 56); transform-origin: 234.315px 308.93px;" id="elqxzgujlymae" class="animable"></path><path d="M134.58,333.37s-22,1.42-34,4.86-10.3,10.09-7.27,17.68,6,13.57,11.44,13.45,36-2.35,40-4.67,3.61-10.27,2.81-17.9S144.47,333.79,134.58,333.37Z" style="fill: rgb(38, 50, 56); transform-origin: 119.592px 351.366px;" id="elfy4c02y2ht4" class="animable"></path><path d="M104.61,369.87c-5.77,0-8.85-6.52-11.75-13.78-1.71-4.27-3.22-8.74-1.46-12.34,1.31-2.67,4.28-4.64,9.06-6,11.94-3.42,33.87-4.87,34.09-4.88h0c10.05.43,12.67,5.86,13.51,13.87s1.28,15.93-3.06,18.39c-4.18,2.36-34.77,4.62-40.28,4.73Zm30-36c-.89.06-22.2,1.51-33.86,4.84-4.49,1.28-7.25,3.08-8.43,5.48-1.59,3.23-.14,7.47,1.49,11.53,2.79,7,5.77,13.24,11,13.14s35.84-2.36,39.81-4.6c3.81-2.16,3.32-10.12,2.55-17.42C146.31,339.14,143.93,334.28,134.59,333.87Z" style="fill: rgb(38, 50, 56); transform-origin: 119.611px 351.37px;" id="elmrvwxrtueve" class="animable"></path><path d="M254.85,302.87s9.24,2.52,16.5,16.31S280,344,280,344l-7.72,1.32s-5.62-18.47-18.11-23.24-15.57-3.35-15.57-3.35,1.24-5.45-10-7.92C228.57,310.79,237.11,301.11,254.85,302.87Z" style="fill: rgb(38, 50, 56); transform-origin: 254.3px 323.988px;" id="elp69vszcz57p" class="animable"></path><path d="M271.94,345.87l-.13-.42c-.05-.19-5.69-18.3-17.81-22.92-11.95-4.57-15.15-3.38-15.19-3.36l-.89.36.21-.93c0-.05.92-5-9.67-7.32l-.83-.19.57-.63c.08-.1,8.91-9.85,26.7-8.09l.08,0c.39.1,9.53,2.73,16.81,16.55s8.7,24.86,8.72,25l.06.48ZM240.21,318c2.1,0,6.32.58,14.15,3.57,11.67,4.46,17.34,20.28,18.28,23.14l6.8-1.16a83,83,0,0,0-8.53-24.16c-6.85-13-15.52-15.86-16.15-16.05-14.64-1.44-22.95,5.08-25.19,7.15,4.38,1.08,7.32,2.75,8.73,5a5.17,5.17,0,0,1,.85,2.59A9.37,9.37,0,0,1,240.21,318Z" style="fill: rgb(38, 50, 56); transform-origin: 254.1px 324.014px;" id="el1mo7s77hwt3" class="animable"></path><polygon points="212.91 335.95 172.06 337.95 174.08 340.16 211.84 338.8 212.91 335.95" style="fill: rgb(38, 50, 56); transform-origin: 192.485px 338.055px;" id="el2skd4t3esnx" class="animable"></polygon><path d="M173.86,340.67,171,337.5l42.67-2.08-1.45,3.86-.33,0Zm-.72-2.28,1.15,1.26,37.2-1.34.68-1.82Z" style="fill: rgb(38, 50, 56); transform-origin: 192.335px 338.045px;" id="el1a0pojx3m3i" class="animable"></path><polygon points="214.33 369.77 168.66 372.09 170.92 374.75 213.14 373.18 214.33 369.77" style="fill: rgb(38, 50, 56); transform-origin: 191.495px 372.26px;" id="el8qjceaiujgg" class="animable"></polygon><path d="M170.7,375.25l-3.08-3.61,47.43-2.4-1.55,4.42Zm-1-2.71,1.45,1.7,41.64-1.55.83-2.38Z" style="fill: rgb(38, 50, 56); transform-origin: 191.335px 372.245px;" id="elage4hbv37z" class="animable"></path><polygon points="211.05 354.89 189.92 355.62 191.4 357.82 211.38 356.86 211.05 354.89" style="fill: rgb(38, 50, 56); transform-origin: 200.65px 356.355px;" id="els8069qpm06o" class="animable"></polygon><path d="M191.14,358.33,189,355.15l22.47-.78.49,3Zm-.31-2.24.82,1.21,19.14-.92-.16-1Z" style="fill: rgb(38, 50, 56); transform-origin: 200.48px 356.35px;" id="elj9uf0so97z" class="animable"></path><path d="M254.21,370.9a59.86,59.86,0,0,0-4.31-35l-2.52-20.44-20,3C214.83,320,206.73,338,209.28,358.67s14.78,36.18,27.31,34.63l20-3Z" style="fill: rgb(84, 84, 84); transform-origin: 232.7px 354.433px;" id="elw6n6r2ttvh" class="animable"></path><path d="M234.89,393.91c-12.16,0-23.65-15.24-26.11-35.18-2.57-20.92,5.74-39.22,18.53-40.79l20.51-3.05,2.57,20.87a60.6,60.6,0,0,1,4.33,35.15l2.44,19.84-20.49,3.05A15.19,15.19,0,0,1,234.89,393.91ZM247,316l-19.5,2.9c-12.26,1.51-20.18,19.31-17.67,39.67s14.52,35.72,26.75,34.21l19.52-2.9-2.35-19,0-.08a59.48,59.48,0,0,0-4.27-34.69l0-.15Z" style="fill: rgb(38, 50, 56); transform-origin: 232.737px 354.4px;" id="el3l1vj38x4cx" class="animable"></path><g id="elc0g51xv44iu"><ellipse cx="251.99" cy="352.9" rx="22.88" ry="37.72" style="fill: rgb(38, 50, 56); transform-origin: 251.99px 352.9px; transform: rotate(-7.02deg);" class="animable" id="elh76vrxdbtl"></ellipse></g><path d="M254.86,390.94c-5.65,0-11.29-3.24-16.05-9.29-5.22-6.61-8.77-15.81-10-25.9s0-19.87,3.43-27.55,8.86-12.46,15.1-13.23,12.59,2.48,17.86,9.17S274,340,275.19,350s0,19.87-3.43,27.55-8.85,12.47-15.09,13.24A15.84,15.84,0,0,1,254.86,390.94Zm-5.74-75.08a13.52,13.52,0,0,0-1.68.1c-5.88.72-11,5.22-14.3,12.65s-4.57,17.11-3.35,27,4.7,18.93,9.8,25.41,11.07,9.51,17,8.79,11-5.21,14.31-12.65,4.57-17.11,3.35-27-4.7-18.93-9.81-25.4C259.83,319,254.46,315.86,249.12,315.86Z" style="fill: rgb(38, 50, 56); transform-origin: 251.992px 352.899px;" id="elikg28r12pmb" class="animable"></path><g id="el0ny8z6tkh44"><ellipse cx="251.99" cy="352.9" rx="14.91" ry="24.59" style="fill: rgb(255, 255, 255); transform-origin: 251.99px 352.9px; transform: rotate(-7.02deg);" class="animable" id="eld18g4hsq7p"></ellipse></g><path d="M253.89,377.87c-8,0-15.58-10-17.19-23.09a34.35,34.35,0,0,1,2.25-18c2.3-5.12,5.84-8.22,10-8.73s8.32,1.64,11.8,6a37.3,37.3,0,0,1,4.31,35c-2.3,5.12-5.85,8.22-10,8.72A9.2,9.2,0,0,1,253.89,377.87Zm-3.77-48.94a9.59,9.59,0,0,0-1.07.06c-3.77.47-7,3.36-9.19,8.15a33.5,33.5,0,0,0-2.17,17.52c1.62,13.18,9.36,23.12,17.25,22.14,3.77-.46,7-3.35,9.19-8.14a33.51,33.51,0,0,0,2.17-17.52h0a33.49,33.49,0,0,0-6.36-16.48C257,330.93,253.55,328.93,250.12,328.93Z" style="fill: rgb(38, 50, 56); transform-origin: 251.966px 352.923px;" id="elki0z7irj6i" class="animable"></path><path d="M254.35,351.71c.55,4.47-1.21,8.37-3.92,8.71s-5.36-3-5.91-7.5,1.2-8.38,3.91-8.71S253.8,347.23,254.35,351.71Z" style="fill: rgb(38, 50, 56); transform-origin: 249.435px 352.316px;" id="ellcwnc27wkk9" class="animable"></path><path d="M250.05,360.94c-2.87,0-5.46-3.37-6-8a11.72,11.72,0,0,1,.78-6.17,4.75,4.75,0,0,1,3.57-3.1c3-.37,5.88,3.12,6.47,7.94h0a11.73,11.73,0,0,1-.77,6.17,4.73,4.73,0,0,1-3.58,3.09Zm-1.23-16.25a1.67,1.67,0,0,0-.32,0,3.78,3.78,0,0,0-2.79,2.51,10.75,10.75,0,0,0-.7,5.64c.52,4.19,2.92,7.36,5.36,7.06a3.81,3.81,0,0,0,2.79-2.51,10.75,10.75,0,0,0,.69-5.64h0C253.36,347.76,251.14,344.69,248.82,344.69Z" style="fill: rgb(38, 50, 56); transform-origin: 249.461px 352.292px;" id="elwk5cxtomhfd" class="animable"></path><path d="M252.44,302.64a85.72,85.72,0,0,0-22.85.79c-5,.89-10.26,2.25-13.74,4.35-8.7,5.25-8.85,11.5-8.85,11.5l26.53-4.71s10.54-10.69,21.32-11.7Z" style="fill: rgb(84, 84, 84); transform-origin: 230.925px 310.749px;" id="eljc2igjmjxo" class="animable"></path><path d="M206.49,319.88v-.61c0-.27.26-6.59,9.09-11.91,3-1.85,7.73-3.33,13.92-4.42a86.16,86.16,0,0,1,23-.8l2.42.23v1c-10.48,1-20.91,11.44-21,11.55l-.11.11-.16,0Zm37.29-17.15a81.29,81.29,0,0,0-14.1,1.2c-6.06,1.06-10.63,2.5-13.57,4.28-6.78,4.09-8.22,8.79-8.53,10.46l25.71-4.57c1.09-1.08,9-8.65,17.92-11.07C248.7,302.83,246.23,302.73,243.78,302.73Z" style="fill: rgb(38, 50, 56); transform-origin: 230.705px 310.798px;" id="el64aaup7jjpj" class="animable"></path><g id="elcpz7flw624l"><rect x="394.58" y="265.9" width="5.56" height="1" style="fill: rgb(38, 50, 56); transform-origin: 397.36px 266.4px; transform: rotate(-8.04906deg);" class="animable" id="elupa70riodtr"></rect></g><path d="M368,346.28c-.42-2.52-10.1-61.77,13.8-78.06l.09-.07,6.57-1,.15,1-6.34.93c-23.25,16-13.39,76.39-13.28,77Z" style="fill: rgb(38, 50, 56); transform-origin: 377.16px 306.715px;" id="elzgfsx1m98go" class="animable"></path><path d="M249.86,241.9l-1.56-3.29c.21-.1,21.08-9.94,41.28-14.38l.78,3.56C270.56,232.14,250.06,241.8,249.86,241.9Z" style="fill: rgb(38, 50, 56); transform-origin: 269.33px 233.065px;" id="eldo5j5fdui3" class="animable"></path><path d="M222.6,246.38l-3.38-1.52c12.28-7.84,71.91-21.28,74.38-21.79l.72,3.57C293.73,226.76,234.32,238.91,222.6,246.38Z" style="fill: rgb(38, 50, 56); transform-origin: 256.77px 234.725px;" id="els19ycwu5y" class="animable"></path><path d="M301.41,274.72a29.73,29.73,0,0,1-3.56-8.91c-1-4.84.42-9.61-4.92-14.73s-15.42-3.42-23.3,1.11-6.31,14.23-7.46,18.74a45.07,45.07,0,0,1-3.56,8.93Z" style="fill: rgb(38, 50, 56); transform-origin: 280.01px 263.9px;" id="elzcyn74ivbjd" class="animable"></path><path d="M284.53,261.11S266.37,275,261.91,276.68s-6.33,1.25-9.14-2.06-5.77-13.22-6.43-20.81,4.37-17.56,15.15-20.53,21.51,2.79,23.41,10,3.48,11.15,2.51,12.55-2.33,1.54-2.31,2.66A8.6,8.6,0,0,1,284.53,261.11Z" style="fill: rgb(255, 255, 255); transform-origin: 266.994px 255.061px;" id="elb2a4va324k" class="animable"></path><path d="M257.8,278.16c-2,0-3.54-1-5.42-3.21-2.79-3.29-5.85-13.15-6.54-21.1s4.52-18,15.52-21a22.37,22.37,0,0,1,17,2c3.62,2.08,6.18,5.1,7,8.29.47,1.79.92,3.37,1.32,4.77,1.27,4.48,2,6.94,1.11,8.18a5.93,5.93,0,0,1-1.45,1.41c-.57.43-.78.62-.77,1a9,9,0,0,1-.6,2.83l-.05.13-.11.08c-.75.57-18.28,13.92-22.75,15.64A12.14,12.14,0,0,1,257.8,278.16ZM267.44,233a22.1,22.1,0,0,0-5.81.78c-10.49,2.89-15.45,12.46-14.79,20s3.67,17.44,6.31,20.54,4.37,3.53,8.58,1.91S282.56,262,284.11,260.8a7.43,7.43,0,0,0,.49-2.31c0-.9.59-1.35,1.18-1.79a5,5,0,0,0,1.22-1.18c.59-.85-.18-3.57-1.25-7.33-.4-1.41-.86-3-1.33-4.8-.77-2.93-3.16-5.73-6.55-7.68A21,21,0,0,0,267.44,233Z" style="fill: rgb(38, 50, 56); transform-origin: 266.981px 255.083px;" id="eljo06cxow2y" class="animable"></path><path d="M248.68,264.23s.43,2.61,6.64,1.49,15-5.81,16.93-7.22,1-4.39.87-6.13-1.86.29-12.67,2.39S247,256.41,247,256.41Z" style="fill: rgb(38, 50, 56); transform-origin: 260.229px 258.856px;" id="eli4nn42kx93a" class="animable"></path><path d="M252.51,266.5a5.76,5.76,0,0,1-3.34-.83,2.23,2.23,0,0,1-1-1.34l-1.82-8.53.73.12s2.77.38,13.26-1.66a83.33,83.33,0,0,0,9.76-2.46c1.77-.55,2.5-.78,3-.42a1.2,1.2,0,0,1,.46.94c0,.31.08.65.14,1,.27,1.78.65,4.23-1.21,5.56s-10.71,6.14-17.14,7.31A16.91,16.91,0,0,1,252.51,266.5Zm-3.34-2.36c0,.09.61,2.08,6.06,1.08,6.28-1.14,15-5.85,16.73-7.13,1.37-1,1.06-3,.81-4.6-.06-.39-.12-.75-.15-1.08a.56.56,0,0,0,0-.22,11.52,11.52,0,0,0-2.16.57,87.83,87.83,0,0,1-9.87,2.49c-8,1.55-11.55,1.73-12.91,1.7Z" style="fill: rgb(38, 50, 56); transform-origin: 260.138px 258.858px;" id="elkguoy9srque" class="animable"></path><path d="M261.16,254.61l-.71.15-1.31.24,2.14,8.95c.64-.25,1.27-.5,1.89-.76Z" style="fill: rgb(255, 255, 255); transform-origin: 261.155px 259.28px;" id="elh6nxlqhv5lf" class="animable"></path><path d="M260.93,264.62l-2.39-10,3-.59,2.21,9.47-.39.16c-.62.26-1.26.52-1.9.76Zm-1.18-9.22,1.88,7.87,1-.38-1.81-7.69Z" style="fill: rgb(38, 50, 56); transform-origin: 261.145px 259.325px;" id="els04d18b0i0p" class="animable"></path><path d="M255.32,265.72c.78-.15,1.59-.34,2.43-.58l-2.24-9.5c-2.11.34-3.75.54-5,.66l2.12,9.69A16,16,0,0,0,255.32,265.72Z" style="fill: rgb(255, 255, 255); transform-origin: 254.13px 260.815px;" id="el6cxpcsdobjl" class="animable"></path><path d="M252.25,266.5l-2.33-10.65.56,0c1.39-.13,3.06-.35,5-.66l.46-.07,2.45,10.42-.46.13c-.87.25-1.7.45-2.47.59h0a16.75,16.75,0,0,1-2.75.28Zm-1.11-9.76,1.91,8.74a15.3,15.3,0,0,0,2.18-.26h0c.6-.11,1.25-.25,1.92-.43l-2-8.59C253.65,256.44,252.31,256.62,251.14,256.74Z" style="fill: rgb(38, 50, 56); transform-origin: 254.155px 260.83px;" id="elg2x0jdvjl2" class="animable"></path><path d="M284.53,261.11s2.1,0,2.12,1.34-.86,6.56-.86,6.56l15.62,5.71-42.8,5.14,3.3-3.18Z" style="fill: #F88F39; transform-origin: 280.01px 270.485px;" id="elxvyosj6pxep" class="animable"></path><path d="M257.2,280.54l4.37-4.22,22.81-15.71h.16c1,0,2.58.38,2.61,1.82a58.75,58.75,0,0,1-.8,6.25L303.54,275Zm27.48-18.93L262.2,277.09l-2.17,2.1,39.25-4.72-14.06-5.14.07-.41c0-.05.89-5.19.86-6.46C286.14,261.78,285.07,261.64,284.68,261.61Z" style="fill: rgb(38, 50, 56); transform-origin: 280.37px 270.575px;" id="elbrlejkdxfcu" class="animable"></path><path d="M320,262l.67,2.39a1.84,1.84,0,0,0,2.15,1.31l11.93-2.44a1.84,1.84,0,0,0,1.41-2.29l-.84-3.15a1.84,1.84,0,0,0-2.27-1.3l-11.76,3.2A1.84,1.84,0,0,0,320,262Z" style="fill: rgb(38, 50, 56); transform-origin: 328.078px 261.096px;" id="elxqf7eymvp3m" class="animable"></path><path d="M322.44,266.27a2.35,2.35,0,0,1-2.26-1.72l-.67-2.38a2.33,2.33,0,0,1,.22-1.79,2.29,2.29,0,0,1,1.42-1.11l11.76-3.21a2.38,2.38,0,0,1,1.79.23,2.43,2.43,0,0,1,1.1,1.43l.83,3.15a2.35,2.35,0,0,1-1.79,2.91l-11.93,2.44A2.5,2.5,0,0,1,322.44,266.27ZM333.53,257a1.49,1.49,0,0,0-.36,0l-11.75,3.2a1.35,1.35,0,0,0-.82.64,1.32,1.32,0,0,0-.13,1l.67,2.38a1.35,1.35,0,0,0,1.57,1l11.93-2.44a1.36,1.36,0,0,0,1-1.67l-.84-3.15a1.35,1.35,0,0,0-1.3-1Z" style="fill: rgb(38, 50, 56); transform-origin: 328.066px 261.125px;" id="els3kx5ivg0l" class="animable"></path><path d="M320.67,272.73l-.51-.86s4.42-2.59,5.66-4a1.53,1.53,0,0,0,0-2.17l.69-.72a2.49,2.49,0,0,1,.1,3.53C325.23,270.06,320.85,272.62,320.67,272.73Z" style="fill: rgb(38, 50, 56); transform-origin: 323.728px 268.855px;" id="el94suwf20ndp" class="animable"></path><path d="M178.84,279.39a1.66,1.66,0,0,0-1.69,1.9c.21,1.42.66,3.12,1.6,3.57,1.7.8,5.23,1.06,7.91.84s3.67-.75,3.49-1.58c-.11-.49-.65-2.24-1.08-3.6a2.23,2.23,0,0,0-2.34-1.56C184.63,279.16,181.15,279.44,178.84,279.39Z" style="fill: rgb(38, 50, 56); transform-origin: 183.651px 282.363px;" id="elz7s2uiv3ne" class="animable"></path><path d="M184.71,286.28a16.4,16.4,0,0,1-6.17-1c-.92-.43-1.56-1.76-1.89-3.94a2.18,2.18,0,0,1,2.2-2.48h0c2.32.05,5.9-.24,7.83-.43a2.75,2.75,0,0,1,2.87,1.91c.63,2,1,3.23,1.08,3.64a1.17,1.17,0,0,1-.2,1c-.47.64-1.62,1-3.73,1.18C186.08,286.25,185.41,286.28,184.71,286.28Zm-5.91-6.39a1.14,1.14,0,0,0-.88.4,1.12,1.12,0,0,0-.28.93c.27,1.75.75,2.92,1.33,3.19,1.67.79,5.19,1,7.65.79,2.26-.19,2.85-.56,3-.77a.22.22,0,0,0,0-.21c-.08-.36-.46-1.62-1.06-3.55a1.72,1.72,0,0,0-1.82-1.21c-2.39.22-5.7.47-7.95.43Z" style="fill: rgb(38, 50, 56); transform-origin: 183.648px 282.353px;" id="el62m1v6bsq8w" class="animable"></path><path d="M193.29,293.32c-.06,0-6-4.2-7.49-5a2.22,2.22,0,0,1-1.25-1.36,1.34,1.34,0,0,1,.21-1.05l.8.61-.4-.3.4.29a.39.39,0,0,0,0,.24c0,.13.17.38.74.68,1.53.81,7.34,4.88,7.59,5.05Z" style="fill: rgb(38, 50, 56); transform-origin: 189.205px 289.615px;" id="elsmetlpigoj9" class="animable"></path><path d="M112.73,318.75l-4.66,4.6,33.42-4.71,5.28-5S123.65,314.89,112.73,318.75Z" style="fill: rgb(38, 50, 56); transform-origin: 127.42px 318.495px;" id="el2natw5sx8kl" class="animable"></path><path d="M106.65,324.06l5.91-5.78c10.87-3.84,33.95-5.12,34.18-5.13l1.36-.07-6.38,6Zm6.35-4.88-3.5,3.46,31.77-4.47,4.15-3.94C140.32,314.57,122.24,316,113,319.18Z" style="fill: rgb(38, 50, 56); transform-origin: 127.375px 318.57px;" id="el00urf2wokrho" class="animable"></path><path d="M302.49,312.15h0A1.81,1.81,0,0,1,301.1,310c1.57-7.35,7.46-35.73,7.85-49.17.49-16.31-1.06-23.81-5.17-25.09-5.19-1.52-73,9.47-84.37,12.27-9.44,2.33-10.86,5.74-13.7,12.53l-.27.64c-3,7.16-11.78,31.49-11.87,31.73l-3.88.89c.36-1,9.35-26.78,12.39-34l.27-.63c3-7.16,5-11.89,16.19-14.67,10.18-2.52,79.93-14.19,86.32-12.21,7.06,2.19,8.2,13.05,7.73,28.68-.41,13.93-6.33,42.36-7.93,49.82A1.81,1.81,0,0,1,302.49,312.15Z" style="fill: rgb(38, 50, 56); transform-origin: 251.186px 272.131px;" id="elox4eh6ats8" class="animable"></path><path d="M310.13,239.76l-1.81-3.16c1.41-.81,34.78-19.68,65.75-23.28l.42,3.62C344.27,220.45,310.46,239.57,310.13,239.76Z" style="fill: rgb(38, 50, 56); transform-origin: 341.405px 226.54px;" id="elgey95xvchvp" class="animable"></path><polygon points="333.6 304.76 318.23 273.37 322.6 271.23 339.08 304.86 333.6 304.76" style="fill: rgb(38, 50, 56); transform-origin: 328.655px 288.045px;" id="el404789r7po2" class="animable"></polygon><path d="M359.82,310.1c-6.48.13-40.06-4.9-54.89-7.17l.55-3.6c19.47,3,51.46,7.58,54.31,7.16,2.36-.71,2.67-.8,4.4-6.14.93-2.86,2.52-11.22,4.06-19.3,2.12-11.09,3.46-18,4.34-19.67,1.51-2.91,9.12-19,9.19-19.13l3.29,1.56c-.31.66-7.71,16.27-9.25,19.24-.68,1.32-2.52,10.95-4,18.68-1.63,8.57-3.17,16.66-4.17,19.74-2.11,6.51-3.2,7.43-7,8.53A3.44,3.44,0,0,1,359.82,310.1Z" style="fill: rgb(38, 50, 56); transform-origin: 345px 276.176px;" id="elm2fvg430h09" class="animable"></path><g id="elxso6bxlrdh"><rect x="341.09" y="216.27" width="3.64" height="67.53" style="fill: rgb(38, 50, 56); transform-origin: 342.91px 250.035px; transform: rotate(-74.64deg);" class="animable" id="eltejck9o2pwc"></rect></g><path d="M380.76,263.77l-3.76-.13s4.34-12.89,5.6-16.66c1-2.92-2.49-16.94-5.9-25.94-2.57-6.77-4.33-7.3-18.83-5.62-18.36,2.13-70.81,11.34-74.41,15.08-.82,1.12-.74,1.58-.73,1.59a35.48,35.48,0,0,0,5.19,1.71l-4.06,2.45c-.35,0-3.38-.33-4.45-2.65-.69-1.52-.31-3.3,1.14-5.28,4.46-6.1,71.4-15.88,76.9-16.52,14-1.62,19-1.69,22.65,7.95,2.77,7.31,7.52,23.67,5.95,28.38C384.8,251.91,380.76,263.77,380.76,263.77Z" style="fill: rgb(38, 50, 56); transform-origin: 332.719px 237.375px;" id="el5lafw1vhudy" class="animable"></path><polygon points="368.37 265.06 341.67 216.67 344.85 214.91 372.28 264.36 368.37 265.06" style="fill: rgb(38, 50, 56); transform-origin: 356.975px 239.985px;" id="el4zirehlb0bg" class="animable"></polygon><polygon points="316.36 273.37 291.28 226.28 296.64 223.43 322.18 272.16 316.36 273.37" style="fill: rgb(38, 50, 56); transform-origin: 306.73px 248.4px;" id="elxdygbfdjyak" class="animable"></polygon><g id="eli18oobd7wvf"><rect x="287.75" y="236.81" width="88.97" height="3.64" style="fill: rgb(38, 50, 56); transform-origin: 332.235px 238.63px; transform: rotate(-30.55deg);" class="animable" id="elx7q3t0wwcl"></rect></g><path d="M212.7,293.78s-10.79,5.26-10.33,6.92,2.63,5.81,5.16,6.6,5.87-.13,6.26-1.39,4.07-6,4.07-6l27.92-6.88,3.85,3.69s-4.77-7.86-7.72-8.64S212.7,293.78,212.7,293.78Z" style="fill: rgb(191, 191, 191); transform-origin: 225.993px 297.804px;" id="elndgdjch64i" class="animable"></path><path d="M209.61,308.09a7.78,7.78,0,0,1-2.22-.31c-2.81-.88-5-5.26-5.51-6.95s6.43-5.47,10.6-7.5l.1,0c2.7-.66,26.48-6.42,29.46-5.64s7.52,8,8,8.86l2,3.26-6.4-6.14-27.5,6.77a37.56,37.56,0,0,0-3.87,5.66C213.89,307.27,211.78,308.09,209.61,308.09Zm3.26-13.84c-4.79,2.34-10,5.44-10,6.35.48,1.73,2.62,5.53,4.83,6.22s5.36-.16,5.63-1.06c.41-1.32,3.77-5.63,4.15-6.11l.11-.14,28.36-7,.57.54c-1.57-2.07-3.41-4.11-4.72-4.45C239.71,288.07,223.38,291.68,212.87,294.25Z" style="fill: rgb(38, 50, 56); transform-origin: 226.947px 297.854px;" id="eljdc4nk6h0hd" class="animable"></path><path d="M247.59,281.53s-7.49-6.77-16.06-7-22,2.91-27.17,7.51A46.16,46.16,0,0,0,196,292Z" style="fill: rgb(255, 255, 255); transform-origin: 221.795px 283.259px;" id="el0tiwsh84ov9" class="animable"></path><path d="M195,292.72l.57-1A46.79,46.79,0,0,1,204,281.67c5.27-4.65,18.87-7.88,27.52-7.64s16.07,6.85,16.38,7.13l.74.67ZM230.64,275c-8.48,0-21,3.05-25.95,7.4a46,46,0,0,0-7.64,8.87l49.42-10c-2.12-1.68-8.24-6-14.95-6.22Z" style="fill: rgb(38, 50, 56); transform-origin: 221.82px 283.369px;" id="elh7x1xzqvv2" class="animable"></path><path d="M247.59,281.53a33,33,0,0,0-9.26-5.55C227,279.5,214,286.89,210.26,289.11Z" style="fill: rgb(255, 255, 255); transform-origin: 228.925px 282.545px;" id="eldnv5zxe73lf" class="animable"></path><path d="M207.44,290.2l2.57-1.52c3.72-2.19,16.75-9.63,28.18-13.18l.16-.05.16.06a33.36,33.36,0,0,1,9.41,5.65l.74.67Zm30.88-13.69C229,279.44,218.56,285,213.17,288l33.3-6.76A33.54,33.54,0,0,0,238.32,276.51Z" style="fill: rgb(38, 50, 56); transform-origin: 228.05px 282.825px;" id="el470exy30pl" class="animable"></path></g><g id="freepik--Flag--inject-4" class="animable" style="transform-origin: 241.58px 137.89px;"><path d="M349.51,43.27c4.73,0,9.41.07,14,.27l.15,14.36c-4.6-.2-9.28-.29-14-.27l-.15-14.36" style="fill: rgb(38, 50, 56); transform-origin: 356.585px 50.585px;" id="el1e46cic2jz" class="animable"></path><path d="M349.66,57.67v0c4.73,0,9.41.07,14,.27l.18,17.74c-5.85-.22-7.7-.27-14-.28l-.17-17.69" style="fill: rgb(255, 255, 255); transform-origin: 356.75px 66.675px;" id="elnz1ha3cb70b" class="animable"></path><path d="M349.83,75.4v0c6,0,7.89,0,14,.28L364,93.42c-4.6-.2-9.29-.29-14-.27l-.18-17.75" style="fill: rgb(38, 50, 56); transform-origin: 356.91px 84.41px;" id="ellecivwc0hm" class="animable"></path><path d="M350,93.19v0c4.73,0,9.42.07,14,.27l.18,17.74c-4.6-.2-9.29-.29-14-.28L350,93.19" style="fill: rgb(255, 255, 255); transform-origin: 357.09px 102.195px;" id="el9x1j6uyy3ma" class="animable"></path><path d="M350.19,110.92v0c4.73,0,9.42.08,14,.28l.17,17.78c-4.59-.2-9.28-.29-14-.27l-.18-17.75" style="fill: rgb(38, 50, 56); transform-origin: 357.27px 119.95px;" id="el4v01efu7thp" class="animable"></path><path d="M350.37,128.7v0c4.73,0,9.42.07,14,.27l.18,17.73c-4.59-.2-9.28-.29-14-.28l-.18-17.69" style="fill: rgb(255, 255, 255); transform-origin: 357.46px 137.7px;" id="el4q7q281yrej" class="animable"></path><path d="M350.55,146.44v-.05c4.73,0,9.42.08,14,.28l.18,17.79c-4.6-.2-9.28-.29-14-.27l-.18-17.75" style="fill: rgb(38, 50, 56); transform-origin: 357.64px 155.425px;" id="eleqmyxl670jl" class="animable"></path><path d="M350.73,164.23v0c4.73,0,9.41.07,14,.27l.15,14.51c-4.6-.2-9.28-.29-14-.27l-.15-14.47" style="fill: rgb(255, 255, 255); transform-origin: 357.805px 171.62px;" id="elvaztoghhyz" class="animable"></path><polyline points="349.65 57.63 349.65 57.57 349.66 57.67 349.65 57.63" style="fill: rgb(255, 255, 255); transform-origin: 349.655px 57.62px;" id="elgyiss1vpy3" class="animable"></polyline><path d="M324,44.3c8.53-.66,17.1-1,25.53-1l.14,14.3c-8.42,0-17,.38-25.52,1L324,44.3" style="fill: rgb(255, 255, 255); transform-origin: 336.835px 50.95px;" id="elrp4u7t8vzf" class="animable"></path><path d="M349.83,75.4v0l-.17-17.69v-.1c-8.42,0-17,.38-25.52,1v0l.18,17.75c8.52-.66,17.1-1,25.52-1v.05" style="fill: rgb(38, 50, 56); transform-origin: 336.99px 66.985px;" id="el85bi22xj3eu" class="animable"></path><path d="M350,93.19v0l-.18-17.75v-.05c-8.42,0-17,.38-25.52,1v0l.18,17.68c8.52-.65,17.1-1,25.52-1v.1" style="fill: rgb(255, 255, 255); transform-origin: 337.15px 84.73px;" id="elejivyz3lbcs" class="animable"></path><path d="M350.19,110.92v0L350,93.19v-.1c-8.42,0-17,.38-25.52,1v0l.18,17.75c8.52-.66,17.1-1,25.52-1v0" style="fill: rgb(38, 50, 56); transform-origin: 337.335px 102.465px;" id="el3xt4c6863vn" class="animable"></path><path d="M350.37,128.7v0l-.18-17.75v0c-8.42,0-17,.38-25.52,1v0l.18,17.69c8.52-.66,17.1-1,25.52-1v.1" style="fill: rgb(255, 255, 255); transform-origin: 337.52px 120.295px;" id="elgrdre25b627" class="animable"></path><path d="M350.55,146.44v-.05l-.18-17.69v-.1c-8.42,0-17,.38-25.52,1v0l.17,17.75c8.53-.66,17.1-1,25.53-1v.05" style="fill: rgb(38, 50, 56); transform-origin: 337.7px 137.975px;" id="elnbb6lt6tpy" class="animable"></path><path d="M350.73,164.23v0l-.18-17.75v-.05c-8.43,0-17,.38-25.53,1v0l.17,17.69c8.53-.66,17.1-1,25.53-1v.11" style="fill: rgb(255, 255, 255); transform-origin: 337.875px 155.775px;" id="ely4gd3bef8e" class="animable"></path><path d="M325.2,165.19v0c8.53-.66,17.1-1,25.53-1v.11l.15,14.47c-8.43,0-17,.38-25.53,1l-.15-14.54" style="fill: rgb(38, 50, 56); transform-origin: 338.04px 171.98px;" id="eljnvhw5p459c" class="animable"></path><polyline points="324.13 58.6 324.13 58.59 324.13 58.64 324.13 58.6" style="fill: rgb(38, 50, 56); transform-origin: 324.13px 58.615px;" id="elc4fysramh37" class="animable"></polyline><path d="M298.8,47.16C307,45.92,315.46,45,324,44.3l.15,14.29c-8.52.66-17,1.62-25.19,2.86l-.14-14.29" style="fill: rgb(38, 50, 56); transform-origin: 311.475px 52.875px;" id="elmzw821alor" class="animable"></path><path d="M324.31,76.44v0l-.18-17.75v0c-8.52.66-17,1.62-25.19,2.86v0l.18,17.69c8.2-1.24,16.67-2.2,25.19-2.86v.12" style="fill: rgb(255, 255, 255); transform-origin: 311.625px 68.965px;" id="elonvo3yj1ifh" class="animable"></path><path d="M324.49,94.16v0l-.18-17.68v-.12c-8.52.66-17,1.62-25.19,2.86v0L299.3,97c8.2-1.24,16.66-2.2,25.19-2.85v0" style="fill: rgb(38, 50, 56); transform-origin: 311.805px 86.68px;" id="el3g6aq4w8etf" class="animable"></path><path d="M324.67,112v0l-.18-17.75v0c-8.53.65-17,1.61-25.19,2.85v0l.18,17.69c8.2-1.24,16.66-2.2,25.19-2.86V112" style="fill: rgb(255, 255, 255); transform-origin: 311.985px 104.52px;" id="el2xbrvxm5h6e" class="animable"></path><path d="M324.85,129.68v0L324.67,112v-.11c-8.53.66-17,1.62-25.19,2.86v0l.18,17.75c8.2-1.24,16.66-2.2,25.19-2.85v0" style="fill: rgb(38, 50, 56); transform-origin: 312.165px 122.195px;" id="elyotamestkug" class="animable"></path><path d="M325,147.47v0l-.17-17.75v0c-8.53.65-17,1.61-25.19,2.85v0l.18,17.69C308,149,316.5,148,325,147.36v.11" style="fill: rgb(255, 255, 255); transform-origin: 312.32px 139.99px;" id="elpirz9qyt24p" class="animable"></path><path d="M325.2,165.19v0L325,147.47v-.11c-8.52.66-17,1.62-25.18,2.86v0L300,168c8.2-1.24,16.66-2.2,25.18-2.85v0" style="fill: rgb(38, 50, 56); transform-origin: 312.51px 157.68px;" id="el6uqdqvjj8x2" class="animable"></path><path d="M300,168.05V168c8.2-1.24,16.66-2.2,25.18-2.85v0l.15,14.54c-8.52.66-17,1.62-25.19,2.86L300,168.05" style="fill: rgb(255, 255, 255); transform-origin: 312.665px 173.85px;" id="elu46mnc73ixh" class="animable"></path><polyline points="298.94 61.45 298.94 61.38 298.94 61.49 298.94 61.45" style="fill: rgb(255, 255, 255); transform-origin: 298.94px 61.435px;" id="el8fj9nq37gjv" class="animable"></polyline><path d="M276.69,51.32c4.26-1,8.67-1.88,13.19-2.69q4.39-.8,8.92-1.47l.14,14.22c-3,.46-6,.95-8.92,1.48q-6.78,1.22-13.18,2.69l-.15-14.23" style="fill: rgb(255, 255, 255); transform-origin: 287.815px 56.355px;" id="elsvqd15682h" class="animable"></path><path d="M299.12,79.22v0l-.18-17.69v-.11c-3,.46-6,.95-8.92,1.48q-6.78,1.22-13.18,2.69v0L277,83.34q6.4-1.47,13.19-2.69c2.93-.53,5.91-1,8.92-1.47v0" style="fill: rgb(38, 50, 56); transform-origin: 287.98px 72.38px;" id="el7ru7771ayhi" class="animable"></path><path d="M299.3,97v0l-.18-17.75v0c-3,.45-6,.94-8.92,1.47q-6.78,1.21-13.19,2.69v0l.17,17.69c4.26-1,8.67-1.88,13.19-2.69,2.93-.53,5.91-1,8.92-1.48V97" style="fill: rgb(255, 255, 255); transform-origin: 288.155px 90.175px;" id="elj4ytrt38lr" class="animable"></path><path d="M299.48,114.74v0L299.3,97V96.9c-3,.46-6,.95-8.92,1.48-4.52.81-8.93,1.71-13.19,2.69v0l.18,17.74c4.26-1,8.67-1.88,13.19-2.69,2.93-.53,5.91-1,8.92-1.47v0" style="fill: rgb(38, 50, 56); transform-origin: 288.335px 107.855px;" id="eltfgqc34bxg" class="animable"></path><path d="M299.66,132.53v0l-.18-17.75v0c-3,.45-6,.94-8.92,1.47-4.52.81-8.93,1.71-13.19,2.69v.05l.18,17.69c4.26-1,8.67-1.88,13.19-2.69q4.39-.79,8.92-1.48v.11" style="fill: rgb(255, 255, 255); transform-origin: 288.515px 125.73px;" id="el3b79whvc27i" class="animable"></path><path d="M299.84,150.26v0l-.18-17.69v-.11q-4.53.69-8.92,1.48c-4.52.81-8.93,1.71-13.19,2.69v0l.18,17.74c4.26-1,8.67-1.88,13.19-2.69q4.4-.8,8.92-1.47v0" style="fill: rgb(38, 50, 56); transform-origin: 288.695px 143.415px;" id="elr69dk29eagk" class="animable"></path><path d="M300,168.05V168l-.18-17.74v0q-4.53.67-8.92,1.47c-4.52.81-8.93,1.71-13.19,2.69v0l.18,17.69c4.26-1,8.67-1.88,13.19-2.69q4.39-.79,8.92-1.48v.11" style="fill: rgb(255, 255, 255); transform-origin: 288.855px 161.185px;" id="elljahj9jeym" class="animable"></path><path d="M277.91,172.15v0c4.26-1,8.67-1.88,13.19-2.69q4.39-.79,8.92-1.48v.11l.14,14.54c-3,.45-6,.95-8.92,1.47-4.51.82-8.92,1.72-13.18,2.69l-.15-14.6" style="fill: rgb(38, 50, 56); transform-origin: 289.035px 177.385px;" id="elama3yuxl2bo" class="animable"></path><polyline points="276.83 65.55 276.84 65.59 276.83 65.55" style="fill: rgb(38, 50, 56); transform-origin: 276.835px 65.57px;" id="elge9n52y7s" class="animable"></polyline><path d="M257.76,56.55c5.84-1.93,12.2-3.68,18.93-5.23l.15,14.23c-6.73,1.54-13.09,3.29-18.94,5.22l-.14-14.22" style="fill: rgb(38, 50, 56); transform-origin: 267.3px 61.045px;" id="ellkevfnt9yc" class="animable"></path><path d="M277,83.38v0l-.17-17.74v0c-6.73,1.54-13.09,3.29-18.94,5.22v0l.18,17.69c5.84-1.93,12.21-3.68,18.93-5.23v.11" style="fill: rgb(255, 255, 255); transform-origin: 267.445px 77.095px;" id="elt88f3ue9shf" class="animable"></path><path d="M277.19,101.11v0L277,83.38v-.11c-6.72,1.55-13.09,3.3-18.93,5.23v0l.18,17.74c5.84-1.93,12.21-3.67,18.93-5.22v0" style="fill: rgb(38, 50, 56); transform-origin: 267.63px 94.755px;" id="el0coisvhmi16b" class="animable"></path><path d="M277.37,118.9v-.05l-.18-17.74v0c-6.72,1.55-13.09,3.29-18.93,5.22v0l.18,17.69c5.84-1.93,12.2-3.68,18.93-5.22v.1" style="fill: rgb(255, 255, 255); transform-origin: 267.815px 112.565px;" id="elzaxwewiuzh" class="animable"></path><path d="M277.55,136.63v0l-.18-17.69v-.1c-6.73,1.54-13.09,3.29-18.93,5.22v0l.18,17.74c5.84-1.93,12.2-3.67,18.93-5.22v0" style="fill: rgb(38, 50, 56); transform-origin: 267.995px 130.32px;" id="elogn9xjyk56" class="animable"></path><path d="M277.73,154.42v0l-.18-17.74v0c-6.73,1.55-13.09,3.29-18.93,5.22v0l.18,17.68c5.84-1.93,12.2-3.68,18.93-5.22v.11" style="fill: rgb(255, 255, 255); transform-origin: 268.175px 148.13px;" id="elipy7wbztv1" class="animable"></path><path d="M277.91,172.15v0l-.18-17.69v-.11c-6.73,1.54-13.09,3.29-18.93,5.22v.05l.18,17.74c5.84-1.93,12.2-3.67,18.93-5.22v.05" style="fill: rgb(38, 50, 56); transform-origin: 268.355px 165.855px;" id="ele25qiy0ctmm" class="animable"></path><path d="M259,177.36v0c5.84-1.93,12.2-3.67,18.93-5.22v.05l.15,14.6c-6.73,1.55-13.09,3.3-18.94,5.23L259,177.36" style="fill: rgb(255, 255, 255); transform-origin: 268.54px 182.08px;" id="el1alx47lyvcd" class="animable"></path><polyline points="257.9 70.77 257.9 70.7 257.9 70.81 257.9 70.77" style="fill: rgb(255, 255, 255); transform-origin: 257.9px 70.755px;" id="ela11uleqbx8f" class="animable"></polyline><path d="M244.21,62.61a52.61,52.61,0,0,1,11-5.21l2.54-.85.14,14.15-2.53.86a51.49,51.49,0,0,0-11,5.21l-.14-14.16" style="fill: rgb(255, 255, 255); transform-origin: 251.05px 66.66px;" id="elv7tl8k4kl4i" class="animable"></path><path d="M258.08,88.54v0l-.18-17.69V70.7l-2.53.86a51.49,51.49,0,0,0-11,5.21v0l.17,17.74a52,52,0,0,1,11-5.2c.83-.29,1.67-.58,2.53-.86v.05" style="fill: rgb(38, 50, 56); transform-origin: 251.225px 82.605px;" id="elux8boxrs1xs" class="animable"></path><path d="M258.26,106.33v0l-.18-17.74v-.05c-.86.28-1.7.57-2.53.86a52,52,0,0,0-11,5.2v0l.18,17.69a51.49,51.49,0,0,1,11-5.21c.83-.29,1.67-.57,2.53-.85v.1" style="fill: rgb(255, 255, 255); transform-origin: 251.405px 100.415px;" id="elf7jin2l56gq" class="animable"></path><path d="M258.44,124.06v0l-.18-17.69v-.1c-.86.28-1.7.56-2.53.85a51.49,51.49,0,0,0-11,5.21v0l.18,17.74a52,52,0,0,1,11-5.2c.83-.29,1.67-.58,2.53-.86v0" style="fill: rgb(38, 50, 56); transform-origin: 251.585px 118.17px;" id="eligwm5icvn" class="animable"></path><path d="M258.62,141.85v0l-.18-17.74v0c-.86.28-1.7.57-2.53.86a52,52,0,0,0-11,5.2v0l.18,17.69a52.61,52.61,0,0,1,11-5.21l2.54-.85v.11" style="fill: rgb(255, 255, 255); transform-origin: 251.77px 135.985px;" id="elis4z7pfs7in" class="animable"></path><path d="M258.8,159.58v-.05l-.18-17.68v-.11l-2.54.85a52.61,52.61,0,0,0-11,5.21v0l.18,17.74a52.13,52.13,0,0,1,11-5.2c.84-.29,1.68-.58,2.54-.86v.05" style="fill: rgb(38, 50, 56); transform-origin: 251.94px 153.64px;" id="elmew6do36fo" class="animable"></path><path d="M259,177.36v0l-.18-17.74v-.05c-.86.28-1.7.57-2.54.86a52.13,52.13,0,0,0-11,5.2v0l.18,17.69a52.13,52.13,0,0,1,11-5.2l2.53-.86v.1" style="fill: rgb(255, 255, 255); transform-origin: 252.14px 171.445px;" id="elvpckqm5fi5l" class="animable"></path><path d="M245.43,183.37v-.05a52.13,52.13,0,0,1,11-5.2l2.53-.86v.1l.14,14.62-2.53.86a51.89,51.89,0,0,0-11,5.2l-.15-14.67" style="fill: rgb(38, 50, 56); transform-origin: 252.26px 187.65px;" id="elxpome1jyh2" class="animable"></path><polyline points="244.35 76.77 244.35 76.76 244.35 76.81 244.35 76.77" style="fill: rgb(38, 50, 56); transform-origin: 244.35px 76.785px;" id="el6myrj27k40x" class="animable"></polyline><path d="M235.77,69.63a47.71,47.71,0,0,1,8.44-7l.14,14.15a47.28,47.28,0,0,0-8.44,7l-.14-14.15" style="fill: rgb(38, 50, 56); transform-origin: 240.06px 73.205px;" id="elqyzu144pkha" class="animable"></path><path d="M244.54,94.6v0l-.17-17.74v0a47.28,47.28,0,0,0-8.44,7l.18,17.74a47.28,47.28,0,0,1,8.44-7v.1" style="fill: rgb(255, 255, 255); transform-origin: 240.24px 89.23px;" id="elhj3mhd86yqs" class="animable"></path><path d="M244.71,112.33v0l-.18-17.69v-.1a47.28,47.28,0,0,0-8.44,7l.18,17.78a47.28,47.28,0,0,1,8.44-7v0" style="fill: rgb(38, 50, 56); transform-origin: 240.4px 106.93px;" id="elf20c79zw1e7" class="animable"></path><path d="M244.89,130.11v0l-.18-17.74v0a47.28,47.28,0,0,0-8.44,7l.18,17.73a47.28,47.28,0,0,1,8.44-7v.1" style="fill: rgb(255, 255, 255); transform-origin: 240.58px 124.735px;" id="elfubjc14557h" class="animable"></path><path d="M245.07,147.85v0l-.18-17.69V130a47.28,47.28,0,0,0-8.44,7l.18,17.79a47.71,47.71,0,0,1,8.44-7v0" style="fill: rgb(38, 50, 56); transform-origin: 240.76px 142.395px;" id="elp986rwd2u" class="animable"></path><path d="M245.25,165.63v0l-.18-17.74v0a47.71,47.71,0,0,0-8.44,7l.18,17.73a46.93,46.93,0,0,1,8.44-7v.1" style="fill: rgb(255, 255, 255); transform-origin: 240.94px 160.255px;" id="elptlwxcvfefr" class="animable"></path><path d="M245.43,183.37v-.05l-.18-17.69v-.1a46.93,46.93,0,0,0-8.44,7l.17,17.79a47.4,47.4,0,0,1,8.45-7v.06" style="fill: rgb(38, 50, 56); transform-origin: 241.12px 177.925px;" id="elwhxvwwckla" class="animable"></path><path d="M237,190.34a47.4,47.4,0,0,1,8.45-7v.06l.15,14.67a47.4,47.4,0,0,0-8.45,7L237,190.34" style="fill: rgb(255, 255, 255); transform-origin: 241.3px 194.205px;" id="elf2km51xr8fa" class="animable"></path><path d="M228.79,76.76c1.66-1.55,3.14-3.11,4.61-4.66.76-.8,1.52-1.6,2.29-2.39l.15,14.55v-.1c-.78.79-1.53,1.58-2.3,2.39-1.47,1.55-2.95,3.1-4.6,4.65l-.15-14.44" style="fill: rgb(255, 255, 255); transform-origin: 232.315px 80.455px;" id="elvq2coarx7k" class="animable"></path><path d="M236,102l-.18-17.73v-.1c-.78.79-1.53,1.58-2.3,2.39-1.47,1.55-2.95,3.1-4.6,4.65v0l.18,17.75c1.65-1.55,3.13-3.11,4.6-4.66.76-.8,1.52-1.6,2.3-2.39v0" style="fill: rgb(38, 50, 56); transform-origin: 232.46px 96.565px;" id="elzk9b2z849p" class="animable"></path><path d="M236.2,119.77,236,102v0c-.78.79-1.54,1.59-2.3,2.39-1.47,1.55-2.95,3.11-4.6,4.66v0l.18,17.69c1.65-1.55,3.13-3.11,4.6-4.66.76-.81,1.52-1.6,2.3-2.39v.1" style="fill: rgb(255, 255, 255); transform-origin: 232.65px 114.37px;" id="elymohhp1uxoe" class="animable"></path><path d="M236.38,137.51l-.18-17.74v-.1c-.78.79-1.54,1.58-2.3,2.39-1.47,1.55-3,3.11-4.6,4.66v0l.18,17.75c1.65-1.55,3.13-3.11,4.6-4.66.76-.8,1.52-1.6,2.3-2.39v0" style="fill: rgb(38, 50, 56); transform-origin: 232.84px 132.07px;" id="el7geizdpe0mo" class="animable"></path><path d="M236.56,155.29l-.18-17.78v0c-.78.79-1.54,1.59-2.3,2.39-1.47,1.55-3,3.11-4.6,4.66v0l.17,17.69c1.66-1.55,3.14-3.11,4.61-4.66.76-.8,1.52-1.6,2.29-2.39v.1" style="fill: rgb(255, 255, 255); transform-origin: 233.02px 149.88px;" id="el4697lv83f7m" class="animable"></path><path d="M236.74,173l-.18-17.74v-.1c-.77.79-1.53,1.59-2.29,2.39-1.47,1.55-2.95,3.11-4.61,4.66v0l.18,17.75c1.66-1.55,3.14-3.11,4.61-4.66.76-.8,1.52-1.6,2.29-2.39V173" style="fill: rgb(38, 50, 56); transform-origin: 233.2px 167.56px;" id="elrqffm7wkp5" class="animable"></path><path d="M236.91,190.81,236.74,173V173c-.77.79-1.53,1.59-2.29,2.39-1.47,1.55-2.95,3.11-4.61,4.66v0l.18,17.69c1.66-1.55,3.14-3.11,4.61-4.66.76-.8,1.52-1.6,2.29-2.39v.1" style="fill: rgb(255, 255, 255); transform-origin: 233.38px 185.37px;" id="eln5ri179lxj8" class="animable"></path><path d="M230,197.8v0c1.66-1.55,3.14-3.11,4.61-4.66.76-.8,1.52-1.6,2.29-2.39v.1l.15,14.33c-.78.79-1.53,1.59-2.3,2.39-1.47,1.55-2.95,3.11-4.6,4.66L230,197.8" style="fill: rgb(38, 50, 56); transform-origin: 233.525px 201.49px;" id="el1a7o8dquzng" class="animable"></path><polyline points="228.94 91.2 228.94 91.19 228.94 91.24 228.94 91.2" style="fill: rgb(38, 50, 56); transform-origin: 228.94px 91.215px;" id="el7mns010128" class="animable"></polyline><path d="M219.76,83.51a49.31,49.31,0,0,0,9-6.75l.15,14.43a48.51,48.51,0,0,1-9,6.75l-.14-14.43" style="fill: rgb(38, 50, 56); transform-origin: 224.335px 87.35px;" id="el3ck2njxd3tm" class="animable"></path><path d="M229.12,109v0l-.18-17.75v0a48.51,48.51,0,0,1-9,6.75v0l.18,17.69a49,49,0,0,0,9-6.75V109" style="fill: rgb(255, 255, 255); transform-origin: 224.53px 103.47px;" id="elx968i3uv1mi" class="animable"></path><path d="M229.3,126.76v0L229.12,109v-.11a49,49,0,0,1-9,6.75v0l.18,17.75a49.41,49.41,0,0,0,9-6.75v0" style="fill: rgb(38, 50, 56); transform-origin: 224.71px 121.14px;" id="ely4tv0sknoaq" class="animable"></path><path d="M229.48,144.55v0l-.18-17.75v0a49.41,49.41,0,0,1-9,6.75v0l.18,17.69a48.41,48.41,0,0,0,9-6.75v.11" style="fill: rgb(255, 255, 255); transform-origin: 224.89px 139.02px;" id="eli0a44unvsgh" class="animable"></path><path d="M229.65,162.28v0l-.17-17.69v-.11a48.41,48.41,0,0,1-9,6.75v0l.18,17.75a49.31,49.31,0,0,0,9-6.75v.05" style="fill: rgb(38, 50, 56); transform-origin: 225.07px 156.73px;" id="el9z425zgpyk" class="animable"></path><path d="M229.83,180.07v0l-.18-17.75v-.05a49.31,49.31,0,0,1-9,6.75v0l.18,17.69a48.41,48.41,0,0,0,9-6.75v.11" style="fill: rgb(255, 255, 255); transform-origin: 225.24px 174.49px;" id="elzsgn84zwxv9" class="animable"></path><path d="M230,197.8v0l-.18-17.69V180a48.41,48.41,0,0,1-9,6.75v0L221,204.5a49.31,49.31,0,0,0,9-6.75v.05" style="fill: rgb(38, 50, 56); transform-origin: 225.41px 192.25px;" id="elr3xdu24ulgo" class="animable"></path><path d="M221,204.55v-.05a49.31,49.31,0,0,0,9-6.75v.05l.15,14.39a49,49,0,0,1-9,6.75L221,204.55" style="fill: rgb(255, 255, 255); transform-origin: 225.575px 208.345px;" id="elcwjd3vdls27" class="animable"></path><polyline points="219.9 97.94 219.9 97.88 219.9 97.98 219.9 97.94" style="fill: rgb(255, 255, 255); transform-origin: 219.9px 97.93px;" id="el28jsuwslpej" class="animable"></polyline><path d="M205.22,89.72a71.31,71.31,0,0,0,14.54-6.21l.14,14.37a71.44,71.44,0,0,1-14.53,6.21l-.15-14.37" style="fill: rgb(255, 255, 255); transform-origin: 212.56px 93.8px;" id="el69n4bl9hwfo" class="animable"></path><path d="M220.08,115.72v0L219.9,98v-.1a71.44,71.44,0,0,1-14.53,6.21v0l.18,17.75a71.4,71.4,0,0,0,14.53-6.22v0" style="fill: rgb(38, 50, 56); transform-origin: 212.725px 109.88px;" id="el44c2oad71it" class="animable"></path><path d="M220.26,133.5v0l-.18-17.75v0a71.4,71.4,0,0,1-14.53,6.22v0l.18,17.69a71.44,71.44,0,0,0,14.53-6.21v.1" style="fill: rgb(255, 255, 255); transform-origin: 212.905px 127.705px;" id="el2ozcse9wojm" class="animable"></path><path d="M220.44,151.23v0l-.18-17.69v-.1a71.44,71.44,0,0,1-14.53,6.21v0l.18,17.75a71.4,71.4,0,0,0,14.53-6.22v0" style="fill: rgb(38, 50, 56); transform-origin: 213.085px 145.42px;" id="elk5hlrodqxik" class="animable"></path><path d="M220.62,169v0l-.18-17.75v0a71.4,71.4,0,0,1-14.53,6.22v0l.18,17.68a71.44,71.44,0,0,0,14.53-6.21v.1" style="fill: rgb(255, 255, 255); transform-origin: 213.265px 163.2px;" id="elm3ej2chclbm" class="animable"></path><path d="M220.8,186.75v0L220.62,169v-.1a71.44,71.44,0,0,1-14.53,6.21v0l.18,17.75a71.4,71.4,0,0,0,14.53-6.22v.05" style="fill: rgb(38, 50, 56); transform-origin: 213.445px 180.88px;" id="el8gfxuk8c0lk" class="animable"></path><path d="M221,204.55v-.05l-.18-17.75v-.05a71.4,71.4,0,0,1-14.53,6.22v0l.18,17.68A71.44,71.44,0,0,0,221,204.43v.12" style="fill: rgb(255, 255, 255); transform-origin: 213.645px 198.65px;" id="el16rk1kpnagkj" class="animable"></path><path d="M206.45,210.69v-.05A71.44,71.44,0,0,0,221,204.43v.12l.14,14.39a71.71,71.71,0,0,1-14.53,6.22q-.08-7.24-.14-14.47" style="fill: rgb(38, 50, 56); transform-origin: 213.795px 214.795px;" id="el4ojkkxoeqcs" class="animable"></path><polyline points="205.37 104.09 205.37 104.08 205.37 104.14 205.37 104.09" style="fill: rgb(38, 50, 56); transform-origin: 205.37px 104.11px;" id="elf9chnf2iepn" class="animable"></polyline><path d="M181.78,94.71c2.7-.36,5.38-.78,8-1.25a126.48,126.48,0,0,0,13.36-3.1c.71-.21,1.41-.42,2.08-.64l.15,14.36c-.68.22-1.37.43-2.09.64a126.29,126.29,0,0,1-13.35,3.1q-3.94.71-8,1.25l-.14-14.36" style="fill: rgb(38, 50, 56); transform-origin: 193.575px 99.395px;" id="elo4mmvnkq2vh" class="animable"></path><path d="M205.55,121.92v0l-.18-17.75v-.06c-.68.22-1.37.43-2.09.64a126.29,126.29,0,0,1-13.35,3.1q-3.94.71-8,1.25v.05l.17,17.69c2.7-.37,5.38-.78,8-1.25a126.29,126.29,0,0,0,13.35-3.1l2.09-.64v.1" style="fill: rgb(255, 255, 255); transform-origin: 193.74px 115.475px;" id="eloqrdj56ld2e" class="animable"></path><path d="M205.73,139.65v0l-.18-17.69v-.1l-2.09.64a126.29,126.29,0,0,1-13.35,3.1c-2.63.47-5.31.88-8,1.25v0l.18,17.74c2.7-.36,5.38-.78,8-1.25a126.87,126.87,0,0,0,13.35-3.1c.71-.21,1.41-.42,2.09-.64v.05" style="fill: rgb(38, 50, 56); transform-origin: 193.92px 133.225px;" id="elv33v00wtx2" class="animable"></path><path d="M205.91,157.45v0l-.18-17.75v-.05c-.68.22-1.38.43-2.09.64a126.87,126.87,0,0,1-13.35,3.1c-2.63.47-5.31.89-8,1.25v0l.18,17.69c2.7-.36,5.38-.78,8-1.25a126.87,126.87,0,0,0,13.35-3.1l2.09-.64v.11" style="fill: rgb(255, 255, 255); transform-origin: 194.1px 150.99px;" id="el0krbu4vqaq9" class="animable"></path><path d="M206.09,175.17v0l-.18-17.68v-.11l-2.09.64a126.87,126.87,0,0,1-13.35,3.1c-2.63.47-5.31.89-8,1.25v0l.18,17.74c2.7-.36,5.38-.78,8-1.25a126.87,126.87,0,0,0,13.35-3.1c.71-.21,1.41-.42,2.09-.64v0" style="fill: rgb(38, 50, 56); transform-origin: 194.28px 168.745px;" id="elc1mvkf4yta" class="animable"></path><path d="M206.27,193v0l-.18-17.75v0c-.68.22-1.38.43-2.09.64a126.87,126.87,0,0,1-13.35,3.1c-2.63.47-5.31.89-8,1.25v0l.18,17.69c2.7-.36,5.38-.78,8-1.25a126.48,126.48,0,0,0,13.36-3.1c.71-.21,1.41-.42,2.09-.64V193" style="fill: rgb(255, 255, 255); transform-origin: 194.465px 186.59px;" id="elhauxhfo352" class="animable"></path><path d="M206.45,210.69v-.05L206.27,193v-.11c-.68.22-1.38.43-2.09.64a126.48,126.48,0,0,1-13.36,3.1c-2.62.47-5.3.89-8,1.25v0l.18,17.74c2.7-.36,5.38-.77,8-1.25a126.48,126.48,0,0,0,13.36-3.1c.71-.21,1.41-.42,2.09-.64v.05" style="fill: rgb(38, 50, 56); transform-origin: 194.635px 204.255px;" id="ela5kwuyquf2p" class="animable"></path><path d="M183,215.67v0c2.7-.36,5.38-.77,8-1.25a126.48,126.48,0,0,0,13.36-3.1c.71-.21,1.41-.42,2.09-.64v.05q.06,7.23.14,14.47l-2.09.63a126.29,126.29,0,0,1-13.35,3.1c-2.63.48-5.3.89-8,1.25L183,215.67" style="fill: rgb(255, 255, 255); transform-origin: 194.795px 220.43px;" id="elb4lvvkje0hp" class="animable"></path><polyline points="181.93 109.07 181.92 109.01 181.93 109.12 181.93 109.07" style="fill: rgb(255, 255, 255); transform-origin: 181.925px 109.065px;" id="elpzvmr32pcu" class="animable"></polyline><path d="M147.45,97a295.44,295.44,0,0,0,34.33-2.32l.14,14.3a291,291,0,0,1-34.33,2.32L147.45,97" style="fill: rgb(255, 255, 255); transform-origin: 164.685px 102.99px;" id="elqa1j3q7s26f" class="animable"></path><path d="M182.1,126.85v0l-.17-17.69V109a291,291,0,0,1-34.33,2.32v0l.18,17.75a295.29,295.29,0,0,0,34.33-2.32v0" style="fill: rgb(38, 50, 56); transform-origin: 164.855px 119.035px;" id="eldpcr0zntfes" class="animable"></path><path d="M182.28,144.64v0l-.18-17.74v0a295.29,295.29,0,0,1-34.33,2.32v0l.18,17.69a291,291,0,0,0,34.33-2.32v.11" style="fill: rgb(255, 255, 255); transform-origin: 165.025px 136.905px;" id="el7zy9onuwcp4" class="animable"></path><path d="M182.46,162.37v0l-.18-17.69v-.11A291,291,0,0,1,148,146.85v0l.18,17.75a295.29,295.29,0,0,0,34.33-2.32v.05" style="fill: rgb(38, 50, 56); transform-origin: 165.255px 154.585px;" id="ely3qdcfafd6" class="animable"></path><path d="M182.64,180.15v0l-.18-17.74v-.05a295.29,295.29,0,0,1-34.33,2.32v0l.18,17.68a293,293,0,0,0,34.33-2.31v.1" style="fill: rgb(255, 255, 255); transform-origin: 165.385px 172.36px;" id="el1qpber3yqq" class="animable"></path><path d="M182.82,197.89v0l-.18-17.69v-.1a293,293,0,0,1-34.33,2.31v0l.18,17.75a295.44,295.44,0,0,0,34.33-2.32v0" style="fill: rgb(38, 50, 56); transform-origin: 165.565px 190.13px;" id="el0i3e8w40pld" class="animable"></path><path d="M183,215.67v0l-.18-17.74v0a295.44,295.44,0,0,1-34.33,2.32v0l.18,17.68A293.16,293.16,0,0,0,183,215.57v.1" style="fill: rgb(255, 255, 255); transform-origin: 165.745px 207.93px;" id="elykht3wshde" class="animable"></path><path d="M148.67,217.92v0A293.16,293.16,0,0,0,183,215.57v.1l.15,14.47a291.26,291.26,0,0,1-34.34,2.32l-.14-14.54" style="fill: rgb(38, 50, 56); transform-origin: 165.91px 224.015px;" id="eloyf6pcu4wp" class="animable"></path><polyline points="147.59 111.33 147.59 111.32 147.59 111.37 147.59 111.33" style="fill: rgb(38, 50, 56); transform-origin: 147.59px 111.345px;" id="elbki0100abke" class="animable"></polyline><path d="M123,96.62c5.11.25,14,.56,24.47.41l.14,14.29c-10.5.15-19.36-.16-24.46-.41L123,96.62" style="fill: rgb(38, 50, 56); transform-origin: 135.305px 103.99px;" id="eldj201ms1vye" class="animable"></path><path d="M147.77,129.16v0l-.18-17.75v-.05c-10.5.15-19.36-.16-24.46-.41v0l.17,17.69c5.11.25,14,.56,24.47.41v.11" style="fill: rgb(255, 255, 255); transform-origin: 135.45px 120.055px;" id="elt9mo3i6dsmi" class="animable"></path><path d="M148,146.89v0l-.18-17.69v-.11c-10.5.15-19.36-.16-24.47-.41v0l.18,17.75c5.11.25,14,.56,24.47.41v0" style="fill: rgb(38, 50, 56); transform-origin: 135.675px 137.785px;" id="el86785dtbb0o" class="animable"></path><path d="M148.13,164.68v0L148,146.89v0c-10.5.15-19.36-.16-24.47-.41v0l.18,17.69c5.11.25,14,.56,24.47.41v.11" style="fill: rgb(255, 255, 255); transform-origin: 135.855px 155.585px;" id="el59xksin9kyc" class="animable"></path><path d="M148.31,182.41v0l-.18-17.68v-.11c-10.5.15-19.36-.16-24.47-.41v.05l.18,17.74c5.11.25,14,.56,24.47.41v0" style="fill: rgb(38, 50, 56); transform-origin: 135.985px 173.33px;" id="elaqlkkgqy6l" class="animable"></path><path d="M148.49,200.2v0l-.18-17.75v0c-10.5.15-19.36-.16-24.47-.41v0l.18,17.69c5.11.25,14,.56,24.47.41v.11" style="fill: rgb(255, 255, 255); transform-origin: 136.165px 191.145px;" id="ellp5ltsuci98" class="animable"></path><path d="M148.67,217.92v0l-.18-17.68v-.11c-10.5.15-19.36-.16-24.47-.41v0l.18,17.74c5.11.25,14,.56,24.47.42v0" style="fill: rgb(38, 50, 56); transform-origin: 136.345px 208.82px;" id="elpimcg9bngfs" class="animable"></path><path d="M124.2,217.51v0c5.11.25,14,.56,24.47.42v0l.14,14.54c-10.5.15-19.35-.16-24.46-.41l-.15-14.54" style="fill: rgb(255, 255, 255); transform-origin: 136.505px 225.01px;" id="eln2avl25vsw" class="animable"></path><polyline points="123.13 110.91 123.13 110.84 123.13 110.95 123.13 110.91" style="fill: rgb(255, 255, 255); transform-origin: 123.13px 110.895px;" id="el94uzd9p73v" class="animable"></polyline><path d="M118.28,96.35c.1,0,1.79.13,4.7.27l.14,14.22c-2.9-.14-4.6-.26-4.69-.27l-.15-14.22" style="fill: rgb(255, 255, 255); transform-origin: 120.7px 103.595px;" id="elagd2vl3u4dp" class="animable"></path><polyline points="123.3 128.64 123.31 128.69 123.3 128.64" style="fill: rgb(38, 50, 56); transform-origin: 123.305px 128.665px;" id="el5opzvigb23i" class="animable"></polyline><path d="M118.43,110.57c.09,0,1.79.13,4.69.27V111l.17,17.69c-2.91-.15-4.6-.27-4.69-.27l-.18-17.8" style="fill: rgb(38, 50, 56); transform-origin: 120.855px 119.63px;" id="elm1a3rcokbhh" class="animable"></path><polyline points="123.48 146.43 123.48 146.36 123.48 146.47 123.48 146.43" style="fill: rgb(255, 255, 255); transform-origin: 123.48px 146.415px;" id="eljip7lsp3zwr" class="animable"></polyline><path d="M118.61,128.37c.09,0,1.78.12,4.69.27v0l.18,17.68c-2.91-.14-4.6-.26-4.69-.27l-.18-17.72" style="fill: rgb(255, 255, 255); transform-origin: 121.045px 137.325px;" id="ellk7a3wwiglb" class="animable"></path><polyline points="123.66 164.16 123.66 164.15 123.66 164.21 123.66 164.16" style="fill: rgb(38, 50, 56); transform-origin: 123.66px 164.18px;" id="elo0eyhgyz89i" class="animable"></polyline><path d="M118.79,146.09c.09,0,1.78.13,4.69.27v.11l.18,17.68c-2.91-.14-4.6-.27-4.7-.27l-.17-17.79" style="fill: rgb(38, 50, 56); transform-origin: 121.225px 155.12px;" id="el0bttbto2ox9" class="animable"></path><polyline points="123.84 181.95 123.84 181.88 123.84 181.99 123.84 181.95" style="fill: rgb(255, 255, 255); transform-origin: 123.84px 181.935px;" id="elmmtz2j4id" class="animable"></polyline><path d="M119,163.88c.1,0,1.79.13,4.7.27v.06l.18,17.67c-2.91-.14-4.6-.26-4.7-.27L119,163.88" style="fill: rgb(255, 255, 255); transform-origin: 121.44px 172.88px;" id="el88hmb0hf1sf" class="animable"></path><polyline points="124.02 199.68 124.02 199.67 124.02 199.72 124.02 199.68" style="fill: rgb(38, 50, 56); transform-origin: 124.02px 199.695px;" id="el6ttc8xsuhl" class="animable"></polyline><path d="M119.14,181.61c.1,0,1.79.13,4.7.27V182l.18,17.68c-2.91-.14-4.6-.27-4.7-.27l-.18-17.79" style="fill: rgb(38, 50, 56); transform-origin: 121.58px 190.645px;" id="elb7h586d2ii4" class="animable"></path><polyline points="124.2 217.46 124.2 217.4 124.2 217.51 124.2 217.46" style="fill: rgb(255, 255, 255); transform-origin: 124.2px 217.455px;" id="elaa0gi0k7pk" class="animable"></polyline><path d="M119.32,199.4c.1,0,1.79.13,4.7.27v.05l.18,17.68c-2.91-.14-4.6-.26-4.7-.27l-.18-17.73" style="fill: rgb(255, 255, 255); transform-origin: 121.76px 208.4px;" id="elkd8g3v8yc0s" class="animable"></path><path d="M119.5,217.13c.1,0,1.79.13,4.7.27v.11l.15,14.54c-2.91-.14-4.61-.26-4.7-.27l-.15-14.65" style="fill: rgb(38, 50, 56); transform-origin: 121.925px 224.59px;" id="elx21od4ht5k8" class="animable"></path></g><defs>     <filter id="active" height="200%">         <feMorphology in="SourceAlpha" result="DILATED" operator="dilate" radius="2"></feMorphology>                <feFlood flood-color="#32DFEC" flood-opacity="1" result="PINK"></feFlood>        <feComposite in="PINK" in2="DILATED" operator="in" result="OUTLINE"></feComposite>        <feMerge>            <feMergeNode in="OUTLINE"></feMergeNode>            <feMergeNode in="SourceGraphic"></feMergeNode>        </feMerge>    </filter>    <filter id="hover" height="200%">        <feMorphology in="SourceAlpha" result="DILATED" operator="dilate" radius="2"></feMorphology>                <feFlood flood-color="#ff0000" flood-opacity="0.5" result="PINK"></feFlood>        <feComposite in="PINK" in2="DILATED" operator="in" result="OUTLINE"></feComposite>        <feMerge>            <feMergeNode in="OUTLINE"></feMergeNode>            <feMergeNode in="SourceGraphic"></feMergeNode>        </feMerge>            <feColorMatrix type="matrix" values="0   0   0   0   0                0   1   0   0   0                0   0   0   0   0                0   0   0   1   0 "></feColorMatrix>    </filter></defs></svg>